<?xml version="1.0" standalone="no"?>
<!DOCTYPE svg PUBLIC "-//W3C//DTD SVG 20010904//EN"
 "http://www.w3.org/TR/2001/REC-SVG-20010904/DTD/svg10.dtd">
<svg version="1.0" xmlns="http://www.w3.org/2000/svg"
 width="820.000000pt" height="632.000000pt" viewBox="0 0 820.000000 632.000000"
 preserveAspectRatio="xMidYMid meet">

<g transform="translate(0.000000,632.000000) scale(0.100000,-0.100000)"
fill="#000000" stroke="none">
<path d="M3904 5620 c-4 -33 -12 -60 -18 -61 -6 0 -2 -4 9 -8 18 -7 17 -8 -6
-14 -22 -6 -25 -11 -21 -36 2 -16 -1 -32 -7 -35 -6 -4 -11 -4 -11 1 0 4 -29 9
-65 10 -41 2 -65 -1 -65 -8 0 -6 -18 -10 -42 -9 -64 3 -65 2 -72 -26 -7 -25
-9 -26 -59 -20 -29 3 -109 8 -179 11 -69 3 -135 7 -145 9 -10 2 -56 7 -103 11
-77 7 -83 6 -71 -9 7 -9 24 -16 36 -16 19 0 23 -5 20 -27 -2 -25 -1 -25 10 -9
12 16 23 17 92 11 67 -5 119 -11 150 -16 4 -1 17 -1 28 1 l20 1 -20 9 c-17 7
-15 9 13 9 23 1 32 -4 32 -15 0 -14 2 -14 15 0 18 18 45 11 46 -13 0 -13 2
-12 8 3 6 16 8 -107 2 -136 -4 -21 -20 -4 -24 25 l-4 32 -1 -32 c-2 -40 -19
-44 -25 -5 l-4 27 -2 -27 -1 -28 -80 1 c-67 1 -80 4 -80 17 -1 16 -1 16 -10 0
-8 -12 -19 -15 -52 -11 -24 3 -46 11 -50 17 -5 8 -8 7 -8 -1 0 -20 -30 -15
-30 5 -1 16 -1 16 -11 0 -5 -10 -18 -18 -29 -18 -10 0 -21 8 -23 18 -4 16 -5
16 -6 0 0 -10 -8 -18 -16 -18 -7 0 -19 8 -24 18 -10 16 -10 16 -11 -1 0 -13
-5 -17 -19 -12 -10 3 -62 8 -115 10 -54 3 -101 7 -105 9 -4 3 -49 6 -100 7
-65 1 -96 6 -107 16 -7 8 -14 10 -14 4 0 -6 -105 -10 -292 -10 -303 -1 -456
-6 -466 -15 -3 -3 26 -6 63 -6 67 0 81 -13 25 -23 -14 -2 40 -4 120 -4 80 0
125 2 100 4 -25 3 -49 9 -55 15 -7 7 11 9 60 4 39 -3 82 -6 98 -6 18 0 27 -5
27 -16 0 -15 17 -16 175 -9 95 4 180 3 186 -1 7 -4 38 -6 68 -5 31 1 79 -2
107 -7 27 -5 81 -5 120 0 101 12 262 11 319 -2 28 -7 124 -14 214 -16 90 -3
169 -8 175 -12 6 -4 74 -7 151 -7 l140 0 3 -51 3 -51 -88 -11 c-90 -11 -168
-32 -161 -43 1 -4 -5 -16 -15 -27 -10 -11 -14 -22 -8 -23 10 -4 -26 -99 -42
-110 -5 -4 -7 -12 -3 -18 4 -6 4 -27 0 -47 -4 -20 -10 -31 -13 -25 -4 6 -7
-16 -8 -47 -1 -32 -9 -91 -17 -132 -8 -41 -18 -91 -21 -110 -3 -19 -8 -42 -10
-50 -5 -16 -124 -80 -148 -80 -6 0 -43 -27 -81 -60 -38 -33 -76 -60 -83 -60
-7 0 -16 -14 -20 -30 -3 -17 -8 -28 -11 -26 -10 11 -102 -143 -96 -161 4 -11
3 -14 -3 -6 -6 8 -14 3 -25 -18 -10 -17 -13 -27 -8 -24 18 11 10 -19 -15 -64
-14 -23 -25 -49 -25 -57 0 -7 -6 -28 -14 -46 -8 -18 -40 -98 -72 -178 -31 -80
-70 -171 -85 -202 -22 -43 -26 -58 -15 -58 12 0 11 -8 -2 -52 -19 -67 -39 -98
-63 -98 -10 0 -20 -4 -23 -9 -3 -5 -15 -7 -27 -4 -16 4 -17 8 -7 14 18 12 -5
12 -68 0 -27 -5 -105 -15 -174 -22 -69 -6 -154 -15 -190 -19 -64 -7 -64 -7
-15 -8 75 -2 494 18 545 26 25 4 44 12 43 17 -2 14 27 45 43 45 7 0 18 10 25
22 l11 21 -35 -21 c-45 -29 -61 -29 -47 -1 7 11 13 38 15 58 4 37 34 125 41
118 3 -3 -15 -68 -32 -112 -5 -14 -4 -17 3 -10 6 6 18 35 28 65 9 30 25 78 36
106 11 28 21 62 23 75 5 40 45 160 65 193 10 17 17 36 14 42 -2 6 3 17 12 24
8 7 15 20 15 29 0 9 9 31 20 49 11 17 17 32 14 32 -3 0 9 20 27 45 29 40 51
63 33 34 -3 -6 12 0 34 12 22 13 39 25 37 28 -3 2 -16 -4 -30 -13 -25 -16 -45
-14 -45 4 0 5 18 19 40 31 40 23 50 40 11 19 -26 -14 -28 4 -2 22 10 7 20 18
21 23 2 6 5 18 8 28 3 10 11 16 18 13 9 -3 11 0 7 11 -4 10 3 23 18 35 64 50
141 98 194 121 71 30 105 60 105 95 0 26 38 92 54 92 11 0 85 82 86 94 0 5
-10 0 -23 -12 -13 -12 -28 -22 -34 -22 -5 0 -18 -9 -28 -20 -26 -29 -34 -25
-28 13 2 17 6 39 7 49 3 25 24 45 53 53 14 3 23 9 19 12 -3 4 4 18 16 33 13
14 9 11 -9 -6 -37 -38 -80 -56 -70 -30 3 8 11 54 18 100 l12 84 48 32 c64 41
183 96 243 111 30 7 89 10 162 7 63 -3 116 -2 119 2 2 4 -26 8 -63 9 -36 1
-69 5 -72 8 -9 10 245 -4 266 -14 34 -18 114 -41 108 -32 -7 12 3 11 27 -2 19
-9 19 -9 7 13 -7 13 -14 25 -15 26 -3 6 -196 42 -224 42 -15 0 -29 6 -32 14
-9 22 15 170 29 182 8 7 9 15 3 25 -5 8 -6 28 -2 44 3 17 6 38 5 48 -1 15 9
17 66 17 37 0 78 -3 91 -7 23 -6 23 -7 5 -14 -18 -7 -17 -8 4 -8 18 -1 22 -7
22 -33 0 -18 -7 -46 -15 -62 -13 -24 -13 -27 -1 -17 8 7 18 26 21 42 8 37 25
38 26 2 0 -25 1 -26 9 -8 7 18 9 18 15 3 4 -9 19 -20 35 -23 16 -3 34 -13 41
-21 9 -11 14 -12 19 -3 6 8 34 7 111 -5 57 -9 115 -17 128 -16 13 0 30 -5 37
-11 7 -6 17 -8 23 -5 5 3 69 -1 142 -9 73 -8 135 -12 138 -9 9 9 -20 22 -39
17 -10 -3 -21 0 -24 6 -4 5 -13 8 -20 5 -8 -3 -37 -1 -65 4 -28 5 -51 5 -51 1
0 -5 -4 -9 -10 -9 -5 0 -7 6 -4 14 3 8 0 13 -8 13 -7 -1 -44 2 -83 7 -38 5
-74 8 -79 7 -5 -1 -25 13 -45 31 -20 18 -31 27 -24 19 15 -17 6 -41 -15 -41
-9 0 -34 17 -56 38 -22 20 -33 28 -25 17 30 -38 29 -42 -6 -42 -26 0 -43 9
-71 38 -38 39 -41 67 -3 34 12 -11 23 -15 27 -10 4 6 22 11 40 12 24 2 36 -4
48 -22 9 -14 21 -25 27 -25 5 0 3 8 -6 18 -25 27 -21 32 23 32 33 0 42 -4 52
-25 6 -14 15 -25 20 -25 5 0 2 10 -6 22 -23 33 -21 36 34 36 32 1 50 -3 50
-11 0 -9 2 -9 8 -1 4 7 39 12 84 12 l77 1 26 -45 c15 -25 29 -43 32 -40 3 3
-4 17 -16 32 -26 33 -27 44 -1 44 11 0 20 -6 20 -14 0 -7 7 -19 15 -26 18 -15
20 1 3 18 -16 16 -4 26 26 18 14 -3 33 -19 41 -34 15 -24 14 -15 -1 22 -4 10
2 12 23 8 15 -2 34 -9 41 -15 8 -6 12 -6 12 1 0 6 10 13 23 15 18 3 16 5 -8 7
-30 2 -30 2 -5 10 16 5 -13 8 -79 8 -57 1 -106 3 -109 7 -3 3 48 5 113 5 65 0
116 -3 112 -6 -6 -7 24 -44 36 -44 5 0 7 7 3 15 -3 10 1 15 12 16 9 1 4 5 -13
9 l-30 8 30 1 c17 0 37 -4 45 -9 12 -7 10 -11 -10 -19 -24 -9 -24 -10 -3 -10
12 -1 27 -10 33 -22 7 -11 14 -18 17 -15 3 3 0 12 -7 21 -10 13 -9 15 11 17
13 1 31 2 39 4 8 1 66 2 129 3 114 1 138 7 65 16 -43 5 -326 25 -377 26 -28 0
-29 2 -12 10 13 6 -8 7 -65 3 -124 -8 -659 -14 -699 -7 -20 3 -35 13 -38 23
-6 24 -44 30 -121 21 -35 -4 -65 -4 -68 1 -3 5 -2 23 1 41 5 24 4 29 -4 21
-19 -17 -71 -5 -71 17 0 11 6 19 13 19 9 0 8 3 -2 9 -8 5 -11 16 -7 29 8 24
-28 72 -53 71 -10 0 -7 -4 7 -10 13 -5 20 -13 17 -19 -4 -7 -12 -7 -25 0 -10
5 -30 10 -45 10 -15 0 -24 4 -20 10 4 6 -21 10 -69 10 l-75 0 -7 -60z m56 36
c-26 -13 -44 -11 -35 5 4 5 18 9 33 9 l27 0 -25 -14z m57 8 c-3 -3 -12 -4 -19
-1 -8 3 -5 6 6 6 11 1 17 -2 13 -5z m99 -24 c24 -9 29 -16 29 -45 1 -33 -16
-48 -30 -26 -6 10 -60 6 -115 -9 -50 -14 -50 -14 -51 28 -2 30 -3 32 -6 9 -5
-30 -23 -27 -23 4 0 40 123 64 196 39z m-31 -89 c-11 -10 -123 -27 -114 -17 3
4 26 10 50 15 62 12 75 13 64 2z m108 -52 c19 -23 22 -39 8 -39 -5 0 -12 8
-14 18 -3 10 -5 6 -6 -11 -1 -17 3 -26 9 -22 16 10 24 -26 11 -47 -7 -11 -10
-32 -6 -47 l6 -28 -53 9 c-29 5 -79 6 -110 3 l-57 -6 -4 38 -4 38 -1 -42 c-3
-57 -28 -60 -27 -3 0 22 3 40 7 40 4 0 8 15 10 33 2 17 8 32 13 32 6 0 19 6
30 13 18 11 17 12 -9 6 -19 -5 -27 -3 -23 3 10 16 48 23 53 9 5 -14 44 -19 44
-6 0 5 -8 11 -17 13 -10 3 2 3 27 0 62 -6 72 -11 64 -25 -5 -10 -4 -10 7 0 12
11 12 14 -1 22 -8 5 -25 10 -37 10 -13 0 -23 5 -23 11 0 19 83 1 103 -22z
m-280 -62 c-8 -13 -9 -17 -12 -44 -2 -14 -5 -13 -14 6 -9 19 -9 25 1 29 6 2
12 10 12 18 0 9 5 12 10 9 6 -4 7 -12 3 -18z m497 11 c0 -9 -25 -14 -85 -16
-49 -1 -85 2 -85 7 0 6 9 8 19 6 11 -2 32 0 48 5 44 13 103 12 103 -2z m-730
-7 c0 -10 -50 -25 -57 -17 -3 2 -2 9 2 15 8 13 55 15 55 2z m143 2 c-13 -2
-33 -2 -45 0 -13 2 -3 4 22 4 25 0 35 -2 23 -4z m-510 -40 c-13 -2 -33 -2 -45
0 -13 2 -3 4 22 4 25 0 35 -2 23 -4z m557 -4 c0 -5 -4 -7 -10 -4 -5 3 -10 2
-10 -4 0 -5 5 -11 10 -13 17 -5 18 -177 2 -183 -24 -9 -212 -5 -212 4 0 5 -9
7 -20 4 -17 -5 -20 0 -20 31 0 21 3 35 8 33 4 -3 7 22 7 55 1 57 15 85 37 72
4 -3 8 0 8 5 0 7 36 11 100 11 64 0 100 -4 100 -11z m654 -88 c-3 -3 -15 5
-26 19 -11 14 -24 25 -29 25 -9 0 -9 2 -9 28 1 6 16 -6 35 -27 19 -22 32 -42
29 -45z m-983 52 c1 -17 2 -17 6 0 12 46 28 2 26 -70 -1 -7 3 -13 8 -13 5 0 9
-16 9 -35 0 -38 -13 -46 -29 -17 -10 16 -10 16 -11 0 0 -10 -4 -18 -9 -18 -8
0 -21 80 -21 138 0 33 19 46 21 15z m463 -55 c-5 -8 -2 -9 12 -4 29 12 129 19
158 12 21 -5 25 -11 21 -29 -6 -21 -11 -83 -14 -153 l-1 -31 -102 -8 c-57 -4
-118 -9 -135 -10 -28 -3 -33 0 -33 19 0 11 5 37 11 56 6 19 11 53 11 75 l-1
40 15 -35 14 -35 -6 38 c-4 28 -2 37 6 32 9 -5 10 0 6 16 -3 13 -3 18 0 12 6
-14 35 -18 33 -5 -2 12 1 22 7 22 3 0 2 -5 -2 -12z m-72 -20 c-7 -7 -12 -8
-12 -2 0 14 12 26 19 19 2 -3 -1 -11 -7 -17z m795 -14 c-3 -3 -12 -4 -19 -1
-8 3 -5 6 6 6 11 1 17 -2 13 -5z m-2410 -10 c-3 -3 -12 -4 -19 -1 -8 3 -5 6 6
6 11 1 17 -2 13 -5z m71 -1 c-10 -2 -26 -2 -35 0 -10 3 -2 5 17 5 19 0 27 -2
18 -5z m-408 -13 c11 -7 7 -10 -17 -10 -18 0 -33 5 -33 10 0 13 30 13 50 0z
m527 4 c-3 -3 -12 -4 -19 -1 -8 3 -5 6 6 6 11 1 17 -2 13 -5z m2376 -1 c-7 -2
-19 -2 -25 0 -7 3 -2 5 12 5 14 0 19 -2 13 -5z m-2546 -20 c-20 -2 -52 -2 -70
0 -17 2 0 4 38 4 39 0 53 -2 32 -4z m596 0 c-7 -2 -21 -2 -30 0 -10 3 -4 5 12
5 17 0 24 -2 18 -5z m1512 -193 c8 -13 -15 -13 -35 0 -12 8 -11 10 7 10 12 0
25 -4 28 -10z m-602 -7 c-7 -2 -21 -2 -30 0 -10 3 -4 5 12 5 17 0 24 -2 18 -5z
m-157 -38 c-22 -17 -36 -19 -36 -7 0 14 12 22 34 22 21 -1 21 -1 2 -15z m40
-30 c-49 -25 -92 -43 -95 -40 -11 11 45 49 98 66 92 30 91 21 -3 -26z m-1103
-1782 c-7 -2 -21 -2 -30 0 -10 3 -4 5 12 5 17 0 24 -2 18 -5z"/>
<path d="M4151 5384 c0 -11 3 -14 6 -6 3 7 2 16 -1 19 -3 4 -6 -2 -5 -13z"/>
<path d="M3550 5282 c0 -18 5 -32 10 -32 6 0 8 11 4 28 -10 39 -14 40 -14 4z"/>
<path d="M3972 5160 c0 -14 2 -19 5 -12 2 6 2 18 0 25 -3 6 -5 1 -5 -13z"/>
<path d="M1111 5614 c0 -11 3 -14 6 -6 3 7 2 16 -1 19 -3 4 -6 -2 -5 -13z"/>
<path d="M1101 5566 c-1 -16 -7 -18 -36 -13 -32 5 -34 4 -19 -10 11 -11 14
-24 9 -42 -4 -14 -9 -81 -12 -148 l-4 -121 28 -5 c15 -3 42 -4 58 -3 17 2 71
4 122 4 78 2 91 4 87 17 -4 10 0 15 11 15 9 0 14 -4 11 -8 -2 -4 0 -14 5 -22
8 -12 12 -12 16 -2 3 8 36 12 114 12 74 0 109 4 109 11 0 8 -30 9 -105 4 -70
-5 -105 -3 -105 3 0 6 8 13 18 15 10 3 6 5 -10 6 -27 1 -28 3 -28 61 0 32 5
82 11 111 l11 52 67 -7 c36 -3 87 -6 114 -6 56 0 64 -17 10 -22 -21 -2 60 -7
180 -11 119 -5 229 -10 243 -13 15 -3 47 -7 73 -9 70 -6 130 -14 197 -28 59
-13 165 -14 214 -2 22 5 23 4 5 -5 -16 -8 -12 -9 18 -5 22 4 37 2 37 -5 0 -5
9 -10 20 -10 14 0 20 7 20 21 0 12 4 17 11 13 7 -4 10 1 7 12 -2 15 -14 20
-51 22 -28 2 -47 -1 -47 -7 0 -14 -70 -14 -90 -1 -11 7 -3 10 30 11 l45 2 -40
7 c-34 6 -29 7 34 9 135 2 69 8 -149 13 -118 3 -195 2 -170 -2 l45 -7 -50 -2
c-27 -1 -71 -5 -98 -7 -26 -3 -129 6 -230 20 -206 29 -437 52 -609 62 -96 5
-118 10 -121 23 -4 13 -5 12 -6 -3z m-11 -36 c0 -5 -2 -10 -4 -10 -3 0 -8 5
-11 10 -3 6 -1 10 4 10 6 0 11 -4 11 -10z m134 1 c4 -5 0 -11 -6 -14 -7 -2 24
-7 69 -11 l82 -7 -6 -107 c-3 -59 -8 -109 -10 -112 -3 -3 -44 -10 -91 -16 -48
-6 -104 -15 -124 -19 -36 -7 -38 -6 -38 19 0 16 -4 25 -10 21 -6 -4 -10 7 -10
24 0 17 4 31 8 31 4 0 9 35 9 78 1 74 1 75 -7 24 -11 -73 -17 -74 -16 -2 1 41
5 60 14 60 6 0 12 7 12 16 0 12 7 14 33 9 24 -5 28 -4 17 4 -11 8 -5 11 27 11
23 0 44 -4 47 -9z m1126 -80 c41 -8 38 -8 -30 -9 -41 0 -106 4 -145 8 l-70 7
100 1 c55 0 120 -3 145 -7z m93 -38 c-7 -2 -19 -2 -25 0 -7 3 -2 5 12 5 14 0
19 -2 13 -5z m-1375 -103 c0 -32 -1 -33 -8 -10 -4 14 -8 41 -8 60 0 32 1 33 8
10 4 -14 8 -41 8 -60z"/>
<path d="M1178 5513 c7 -3 16 -2 19 1 4 3 -2 6 -13 5 -11 0 -14 -3 -6 -6z"/>
<path d="M7099 5520 c-4 -8 -4 -43 -2 -77 6 -70 2 -74 -77 -61 -25 4 -61 6
-80 6 -24 0 -27 -2 -10 -4 137 -21 170 -33 170 -60 0 -10 -8 -13 -27 -9 l-28
5 29 -11 c28 -11 28 -12 21 -68 -10 -85 -11 -121 -3 -121 5 0 9 19 9 43 l2 42
7 -35 7 -35 3 40 c1 22 1 55 0 73 -2 35 13 42 29 15 9 -16 10 -16 11 5 0 15
-6 22 -19 22 -21 0 -35 38 -21 55 6 7 6 15 0 21 -5 5 -10 45 -12 89 -2 44 -6
73 -9 65z"/>
<path d="M1968 5493 c18 -2 45 -2 60 0 15 2 0 4 -33 4 -33 0 -45 -2 -27 -4z"/>
<path d="M7062 5480 c0 -14 2 -19 5 -12 2 6 2 18 0 25 -3 6 -5 1 -5 -13z"/>
<path d="M2680 5462 c0 -7 -8 -12 -17 -12 -14 -1 -12 -4 7 -14 l24 -14 -24 -5
c-18 -3 -14 -5 15 -6 102 -6 172 -11 190 -15 60 -11 13 41 -48 54 -29 6 -11 7
63 4 58 -3 114 -8 125 -11 14 -4 17 -2 10 5 -15 16 -345 28 -345 14z m78 -9
c-10 -2 -28 -2 -40 0 -13 2 -5 4 17 4 22 1 32 -1 23 -4z m-31 -29 c-3 -3 -12
-4 -19 -1 -8 3 -5 6 6 6 11 1 17 -2 13 -5z"/>
<path d="M5812 5453 c48 -2 129 -2 180 0 51 1 12 3 -87 3 -99 0 -141 -2 -93
-3z"/>
<path d="M6117 5453 c18 -2 50 -2 70 0 21 2 7 4 -32 4 -38 0 -55 -2 -38 -4z"/>
<path d="M5498 5443 c12 -2 30 -2 40 0 9 3 -1 5 -23 4 -22 0 -30 -2 -17 -4z"/>
<path d="M5560 5446 c0 -9 30 -14 35 -6 4 6 -3 10 -14 10 -12 0 -21 -2 -21 -4z"/>
<path d="M6298 5443 c12 -2 30 -2 40 0 9 3 -1 5 -23 4 -22 0 -30 -2 -17 -4z"/>
<path d="M2953 5433 c9 -2 25 -2 35 0 9 3 1 5 -18 5 -19 0 -27 -2 -17 -5z"/>
<path d="M6422 5433 c10 -3 15 -10 11 -19 -3 -9 -9 -12 -12 -7 -3 4 -78 5
-166 2 -88 -4 -249 -7 -357 -8 -108 -1 -199 -5 -202 -9 -2 -4 232 -8 522 -7
290 0 547 -4 571 -9 31 -6 42 -5 37 3 -4 6 0 11 9 11 9 0 13 -5 9 -11 -3 -6
-1 -15 7 -19 9 -6 14 -48 17 -154 l5 -146 -29 -1 -29 -1 30 -7 c17 -4 33 -6
37 -4 8 4 3 201 -7 267 -7 43 -6 48 9 43 9 -4 16 -2 16 3 0 6 -7 10 -15 10
-18 0 -20 16 -2 23 7 3 4 7 -8 8 -11 2 25 6 80 9 l100 6 -115 2 c-77 1 -110
-1 -100 -8 10 -7 -16 -10 -82 -10 -59 0 -98 4 -98 10 0 6 -27 10 -60 10 -33 0
-60 -4 -60 -10 0 -5 -19 -10 -42 -9 l-43 1 40 13 c39 12 39 13 10 14 -16 1
-46 3 -65 5 -19 2 -27 2 -18 -1z"/>
<path d="M7066 5422 c-2 -4 -1 -14 5 -22 7 -12 9 -10 9 8 0 23 -5 28 -14 14z"/>
<path d="M2926 5405 c-4 -11 2 -15 22 -15 19 0 23 3 13 9 -11 7 -10 10 5 14
14 3 12 5 -7 6 -16 1 -29 -5 -33 -14z"/>
<path d="M2996 5404 c-8 -21 -7 -31 2 -18 4 6 16 16 27 22 20 11 20 11 -1 12
-12 0 -25 -7 -28 -16z"/>
<path d="M6778 5413 c6 -2 18 -2 25 0 6 3 1 5 -13 5 -14 0 -19 -2 -12 -5z"/>
<path d="M3068 5403 c7 -3 16 -2 19 1 4 3 -2 6 -13 5 -11 0 -14 -3 -6 -6z"/>
<path d="M2603 5385 c0 -8 4 -15 9 -15 4 0 8 7 8 15 0 8 -4 15 -8 15 -5 0 -9
-7 -9 -15z"/>
<path d="M4258 5393 c6 -2 18 -2 25 0 6 3 1 5 -13 5 -14 0 -19 -2 -12 -5z"/>
<path d="M2425 5380 c11 -5 29 -9 40 -9 l20 0 -20 9 c-11 5 -29 9 -40 9 l-20
0 20 -9z"/>
<path d="M2655 5380 c-19 -8 -19 -9 3 -9 12 -1 22 4 22 9 0 6 -1 10 -2 9 -2 0
-12 -4 -23 -9z"/>
<path d="M2690 5379 c0 -12 11 -18 36 -21 19 -2 37 0 40 4 5 8 -15 12 -46 10
-8 0 -18 5 -22 11 -5 8 -8 7 -8 -4z"/>
<path d="M3452 5329 c-6 -23 -7 -38 -2 -33 9 10 24 74 17 74 -3 0 -9 -19 -15
-41z"/>
<path d="M4790 5351 c5 -11 15 -23 21 -27 6 -3 3 5 -6 20 -20 30 -30 35 -15 7z"/>
<path d="M4956 5357 c3 -10 9 -15 12 -12 3 3 0 11 -7 18 -10 9 -11 8 -5 -6z"/>
<path d="M1002 5330 c0 -19 2 -27 5 -17 2 9 2 25 0 35 -3 9 -5 1 -5 -18z"/>
<path d="M3342 5340 c0 -14 2 -19 5 -12 2 6 2 18 0 25 -3 6 -5 1 -5 -13z"/>
<path d="M4540 5346 c0 -2 8 -10 18 -17 15 -13 16 -12 3 4 -13 16 -21 21 -21
13z"/>
<path d="M4908 5334 c10 -20 42 -52 42 -42 0 3 -12 18 -26 34 -17 19 -22 22
-16 8z"/>
<path d="M4870 5322 c6 -13 14 -21 18 -18 3 4 -2 14 -12 24 -18 16 -18 16 -6
-6z"/>
<path d="M3361 5284 c0 -11 3 -14 6 -6 3 7 2 16 -1 19 -3 4 -6 -2 -5 -13z"/>
<path d="M1670 5270 c-40 -6 -37 -7 29 -8 41 -1 72 0 70 2 -11 9 -58 12 -99 6z"/>
<path d="M4437 5245 c-10 -14 -24 -25 -31 -25 -8 0 -16 -7 -20 -15 -4 -10 1
-15 14 -15 12 0 20 7 20 16 0 9 9 18 20 21 11 3 20 14 20 24 0 24 -1 24 -23
-6z"/>
<path d="M4295 5220 c-30 -8 -30 -8 8 -9 20 0 37 4 37 9 0 11 -2 11 -45 0z"/>
<path d="M7163 5180 c0 -30 2 -43 4 -27 2 15 2 39 0 55 -2 15 -4 2 -4 -28z"/>
<path d="M5190 5212 c0 -6 9 -12 20 -15 11 -3 20 -3 20 -1 0 2 -9 8 -20 14
-11 6 -20 7 -20 2z"/>
<path d="M1084 5196 c-3 -7 -1 -29 4 -47 l10 -34 1 48 c1 47 -5 60 -15 33z"/>
<path d="M5255 5200 c-3 -4 21 -11 53 -15 31 -3 68 -9 82 -12 20 -5 23 -3 13
7 -7 7 -28 13 -46 12 -19 -1 -49 3 -66 8 -17 5 -33 5 -36 0z"/>
<path d="M5450 5179 c0 -5 11 -9 25 -9 14 0 25 2 25 4 0 2 -11 6 -25 8 -14 3
-25 1 -25 -3z"/>
<path d="M1372 5160 c0 -14 2 -19 5 -12 2 6 2 18 0 25 -3 6 -5 1 -5 -13z"/>
<path d="M5528 5169 c4 -3 59 -12 122 -18 63 -7 129 -14 145 -16 101 -12 127
-13 190 -6 l70 8 -60 3 c-33 1 -80 4 -105 6 -25 2 -67 4 -95 4 -27 0 -101 6
-162 13 -62 7 -109 10 -105 6z"/>
<path d="M6138 5123 c12 -2 30 -2 40 0 9 3 -1 5 -23 4 -22 0 -30 -2 -17 -4z"/>
<path d="M7151 5104 c0 -11 3 -14 6 -6 3 7 2 16 -1 19 -3 4 -6 -2 -5 -13z"/>
<path d="M6068 5103 c7 -3 16 -2 19 1 4 3 -2 6 -13 5 -11 0 -14 -3 -6 -6z"/>
<path d="M6388 5103 c6 -2 18 -2 25 0 6 3 1 5 -13 5 -14 0 -19 -2 -12 -5z"/>
<path d="M6143 5093 c9 -2 23 -2 30 0 6 3 -1 5 -18 5 -16 0 -22 -2 -12 -5z"/>
<path d="M6483 5093 c9 -2 25 -2 35 0 9 3 1 5 -18 5 -19 0 -27 -2 -17 -5z"/>
<path d="M6218 5083 c7 -3 16 -2 19 1 4 3 -2 6 -13 5 -11 0 -14 -3 -6 -6z"/>
<path d="M6573 5083 c9 -2 23 -2 30 0 6 3 -1 5 -18 5 -16 0 -22 -2 -12 -5z"/>
<path d="M6668 5073 c7 -3 16 -2 19 1 4 3 -2 6 -13 5 -11 0 -14 -3 -6 -6z"/>
<path d="M7120 5060 c-23 -23 -36 -25 -43 -7 -4 7 -6 6 -6 -4 -1 -9 -11 -20
-23 -24 -33 -9 -4 -18 35 -11 21 4 38 16 49 36 20 35 16 38 -12 10z"/>
<path d="M6733 5063 c9 -2 25 -2 35 0 9 3 1 5 -18 5 -19 0 -27 -2 -17 -5z"/>
<path d="M6413 5053 c9 -2 23 -2 30 0 6 3 -1 5 -18 5 -16 0 -22 -2 -12 -5z"/>
<path d="M6493 5043 c9 -2 23 -2 30 0 6 3 -1 5 -18 5 -16 0 -22 -2 -12 -5z"/>
<path d="M6923 5043 c9 -2 25 -2 35 0 9 3 1 5 -18 5 -19 0 -27 -2 -17 -5z"/>
<path d="M4488 5034 c6 -3 12 -10 12 -15 0 -6 9 -29 20 -51 11 -23 20 -51 20
-62 -1 -12 22 -66 49 -121 27 -55 61 -125 75 -155 14 -30 25 -49 26 -42 0 21
40 -6 40 -27 0 -13 10 -20 31 -25 17 -3 28 -10 24 -16 -3 -5 1 -10 9 -10 9 0
16 -9 16 -20 0 -13 -7 -20 -20 -20 -17 0 -20 -7 -20 -44 0 -24 -4 -46 -10 -48
-6 -2 -3 -36 6 -88 12 -66 15 -130 11 -280 -3 -107 -2 -180 3 -162 4 18 10 35
13 38 9 10 24 -139 28 -286 1 -53 3 -58 8 -30 6 31 9 25 24 -55 9 -49 17 -101
17 -114 0 -13 11 -47 23 -75 57 -124 57 -123 51 -93 -4 16 -2 27 5 27 6 0 11
-7 11 -14 0 -10 12 -15 38 -15 35 0 87 -6 87 -10 0 -2 84 -9 123 -10 12 -1 25
-8 29 -17 4 -10 8 -12 12 -5 5 8 23 8 62 1 44 -8 190 -24 397 -44 13 -2 28 -9
33 -17 8 -12 10 -12 18 1 21 32 20 -1 -3 -76 -13 -44 -29 -107 -36 -140 -7
-32 -16 -64 -22 -71 -6 -7 -4 -13 4 -16 7 -3 9 -6 3 -6 -6 -1 -8 -44 -4 -123
7 -130 20 -216 46 -310 12 -45 13 -61 4 -72 -7 -8 -55 -32 -107 -52 -85 -34
-98 -36 -117 -24 -20 12 -21 12 -9 -2 14 -17 21 -13 -128 -66 -25 -9 -52 -16
-60 -17 -8 -1 -22 -5 -30 -8 -63 -23 -113 -35 -126 -30 -8 3 -21 0 -28 -6 -22
-19 -166 -50 -331 -73 -155 -22 -411 -28 -635 -15 -97 6 -427 48 -485 63 -26
7 -32 18 -14 29 6 4 8 14 5 22 -3 8 -2 12 3 9 11 -7 23 22 15 35 -3 6 -1 16 6
24 6 7 12 27 12 44 1 17 6 31 11 31 5 0 -2 11 -17 25 -23 21 -37 25 -86 25
-49 0 -61 -3 -70 -20 -6 -11 -17 -20 -24 -20 -16 0 -30 -27 -27 -51 2 -19 -32
-51 -50 -47 -26 6 -184 102 -260 158 -42 31 -105 68 -140 82 -68 28 -322 84
-426 94 -35 4 -63 11 -63 17 0 5 -6 5 -13 -2 -8 -6 -16 -9 -19 -6 -9 10 -323
15 -338 5 -23 -15 -8 -20 86 -31 114 -12 257 -19 194 -10 -39 6 -42 8 -20 14
36 11 308 -17 323 -33 10 -10 3 -11 -38 -6 -27 4 -84 8 -125 11 -41 2 8 -7
110 -20 102 -13 203 -29 225 -35 73 -21 240 -115 473 -266 3 -2 -31 -58 -97
-161 -26 -41 -40 -53 -60 -54 -17 -1 -20 -3 -8 -6 19 -5 21 -16 7 -42 -6 -12
-26 -21 -58 -25 -59 -8 -121 -47 -188 -119 -27 -28 -53 -51 -57 -49 -5 1 -5
-2 -2 -8 4 -6 0 -19 -8 -28 -21 -23 -39 -140 -31 -194 7 -49 53 -150 85 -188
11 -14 17 -18 13 -10 -7 13 -6 13 12 0 10 -8 28 -22 40 -32 25 -22 129 -64
119 -48 -3 6 4 10 17 10 17 0 19 -3 9 -9 -21 -13 41 -24 90 -16 34 6 40 5 33
-6 -4 -8 14 4 41 27 28 22 67 50 87 63 20 12 48 35 62 51 l25 30 22 -38 c28
-46 37 -53 119 -93 81 -40 151 -43 225 -10 131 58 192 182 161 331 -18 87 -46
141 -106 204 l-48 51 15 35 c9 19 17 37 17 40 1 3 9 24 18 45 9 22 19 53 23
68 l6 28 87 -8 c48 -4 215 -7 372 -7 234 1 308 5 410 21 69 11 126 17 128 13
1 -4 22 -37 46 -73 l44 -67 -36 -45 c-19 -25 -37 -56 -38 -68 -1 -12 -5 -47
-9 -77 -8 -69 25 -218 60 -272 14 -21 48 -53 77 -73 56 -37 47 -49 -10 -15
-19 12 -31 16 -27 10 20 -33 155 -62 198 -43 12 5 47 18 77 28 30 10 61 20 69
23 10 4 12 1 6 -9 -10 -17 32 17 56 46 9 11 36 57 60 104 42 80 44 89 43 166
0 68 -5 91 -27 136 -34 69 -57 95 -138 150 -81 57 -116 69 -194 69 -56 0 -63
2 -73 25 -9 20 -9 26 1 29 139 41 326 105 412 142 169 71 168 70 172 58 2 -6
18 3 36 20 19 17 58 44 88 60 52 28 53 28 34 6 l-20 -24 30 19 c49 31 248 235
299 308 26 37 52 67 57 67 5 0 11 -10 13 -22 13 -59 15 -58 10 2 -6 77 -6 84
0 130 3 19 3 27 0 17 -3 -10 -10 -17 -14 -15 -9 3 -54 86 -118 215 -20 40 -44
75 -54 79 -10 3 -18 9 -18 14 0 5 -17 29 -37 54 -21 24 -53 63 -72 86 l-34 42
24 19 c13 10 38 19 54 20 l30 2 -28 4 c-17 3 -42 -4 -64 -17 l-37 -22 -32 38
c-31 35 -84 160 -84 196 0 29 -61 209 -91 269 -42 85 -172 254 -268 350 -98
98 -214 178 -357 245 -55 25 -107 50 -116 55 -10 5 -28 9 -40 9 -33 0 -184 65
-224 95 -35 27 -124 190 -185 339 l-28 68 30 -4 c16 -3 29 -1 29 4 0 4 -13 8
-29 8 -16 0 -31 4 -33 9 -1 4 -14 11 -28 15 -14 3 -19 3 -12 0z m410 -552 c7
-5 10 -16 6 -25 -8 -21 -20 -22 -28 -1 -5 13 -9 14 -20 5 -10 -9 -15 -8 -19 3
-3 8 -3 17 0 20 9 9 46 7 61 -2z m56 -20 c2 -4 1 -14 -4 -21 -6 -11 -10 -9
-19 8 -10 17 -9 21 3 21 8 0 17 -4 20 -8z m46 -38 c0 -31 -23 -28 -28 4 -2 15
2 22 12 22 11 0 16 -9 16 -26z m122 -48 c4 -6 12 -11 17 -11 10 0 65 -38 130
-90 21 -16 50 -39 66 -50 55 -39 95 -77 95 -91 0 -8 5 -14 11 -14 16 0 59 -48
59 -64 0 -8 7 -17 15 -20 9 -3 23 -22 31 -41 8 -19 19 -35 24 -35 6 0 10 -6
10 -14 0 -21 27 -41 33 -24 2 7 3 4 1 -8 -2 -11 3 -29 10 -40 7 -10 19 -44 26
-74 7 -30 19 -58 26 -63 7 -4 15 -26 19 -49 4 -24 14 -47 22 -53 17 -13 53
-233 52 -315 -1 -46 -3 -50 -9 -25 -4 17 -8 50 -9 75 -1 25 -6 52 -12 60 -7
11 -9 -2 -5 -45 13 -152 15 -200 6 -165 -5 19 -12 65 -15 102 -5 50 -11 68
-22 68 -12 0 -14 -16 -9 -102 7 -111 -7 -110 -20 2 -4 33 -11 63 -17 67 -6 4
-8 -11 -4 -43 6 -48 6 -48 -8 -19 -15 32 -18 28 -15 -24 2 -46 -16 -31 -25 19
-8 45 -25 54 -25 14 0 -19 -4 -25 -15 -20 -10 4 -19 -2 -24 -16 -7 -18 -9 -19
-14 -5 -9 23 -27 21 -27 -2 0 -14 -10 -20 -45 -24 -24 -4 -50 -5 -57 -3 -7 1
-10 1 -5 -1 16 -10 -6 -23 -28 -17 -12 3 -38 7 -56 8 -58 5 -60 6 -54 15 3 5
1 12 -4 15 -5 4 -12 25 -16 49 -4 23 -14 55 -22 71 l-15 30 -14 -25 c-7 -13
-14 -42 -14 -64 0 -30 -3 -36 -10 -25 -5 8 -10 26 -10 40 0 43 -20 100 -35
100 -9 0 -15 -14 -17 -37 l-3 -38 -12 40 c-6 22 -17 59 -23 83 -12 47 -22 52
-38 20 -10 -23 -11 -23 -11 4 -1 16 -9 32 -20 38 -27 14 -29 13 -24 -14 3 -13
1 -26 -5 -30 -5 -3 -15 22 -22 57 -31 157 -60 194 -60 76 0 -40 -2 -70 -5 -67
-19 19 -65 388 -49 388 5 0 8 61 6 137 -2 80 1 149 7 163 10 25 10 25 9 -5 -3
-67 2 -106 13 -99 8 5 10 40 5 120 -7 123 7 160 19 49 3 -36 11 -65 15 -65 5
0 6 30 3 66 -5 54 -4 66 7 62 8 -2 18 -19 22 -36 12 -47 28 -39 28 14 0 40 2
45 15 34 19 -16 35 -4 35 26 l0 24 53 -26 c28 -15 55 -32 59 -38z m-295 -13
c-3 -10 -5 -4 -5 12 0 17 2 24 5 18 2 -7 2 -21 0 -30z m613 -169 c14 -15 18
-23 10 -19 -29 17 -110 88 -110 97 0 12 65 -39 100 -78z m159 -179 c31 -45 48
-73 37 -64 -23 21 -155 186 -155 194 0 12 80 -76 118 -130z m58 -157 c-3 -8
-6 -5 -6 6 -1 11 2 17 5 13 3 -3 4 -12 1 -19z m33 -48 c0 -11 -2 -20 -4 -20
-2 0 -6 9 -9 20 -3 11 -1 20 4 20 5 0 9 -9 9 -20z m55 -97 c9 -20 14 -41 12
-47 -4 -12 -30 33 -42 73 -11 37 13 16 30 -26z m-25 -15 c0 -5 -4 -8 -10 -8
-5 0 -10 10 -10 23 0 18 2 19 10 7 5 -8 10 -18 10 -22z m50 -102 c6 -24 10
-54 8 -67 -2 -18 -8 -8 -21 36 -32 103 -32 101 -15 87 9 -7 21 -32 28 -56z
m-846 -42 c9 -42 14 -79 11 -82 -5 -6 -8 3 -25 73 -7 28 -14 58 -17 68 -2 9 0
17 5 17 5 0 16 -34 26 -76z m886 8 c0 -7 -4 -10 -10 -7 -5 3 -10 16 -10 28 0
18 2 19 10 7 5 -8 10 -21 10 -28z m-891 -139 c7 -38 15 -79 18 -93 4 -18 2
-22 -5 -15 -13 12 -42 118 -42 152 0 47 17 21 29 -44z m135 10 c4 -21 12 -66
18 -100 10 -57 7 -86 -8 -71 -12 12 -34 115 -34 161 0 56 15 62 24 10z m785
-8 c0 -5 -4 -3 -9 5 -5 8 -9 22 -9 30 0 16 17 -16 18 -35z m-31 -70 l1 -20 -9
20 c-5 11 -8 31 -8 45 l0 25 8 -25 c4 -14 8 -34 8 -45z m-804 -26 c7 -44 4
-55 -13 -44 -13 7 -15 85 -2 85 5 0 11 -19 15 -41z m216 -16 c7 -32 15 -64 18
-71 3 -10 -2 -13 -19 -10 -22 3 -24 8 -27 71 -2 37 1 67 6 67 5 0 15 -26 22
-57z m-97 -38 c4 -8 2 -17 -3 -20 -6 -4 -10 3 -10 14 0 25 6 27 13 6z m814
-39 c8 -4 21 -2 28 4 9 8 14 6 19 -5 3 -8 10 -15 16 -15 6 0 8 6 4 13 -4 6 9
-4 29 -22 21 -19 37 -40 37 -45 0 -6 -11 1 -24 16 -20 22 -26 25 -35 14 -9
-11 -8 -14 6 -12 10 0 22 -9 28 -22 5 -13 20 -25 32 -28 12 -3 24 -12 27 -20
4 -10 1 -13 -7 -9 -6 4 -3 -1 7 -9 11 -9 16 -16 12 -16 -4 0 7 -21 25 -46 42
-61 91 -205 95 -280 3 -52 1 -66 -17 -85 -18 -21 -20 -22 -15 -4 5 17 3 16
-14 -5 -13 -17 -20 -20 -20 -10 0 8 -10 -1 -21 -20 -31 -51 -54 -74 -154 -155
-78 -62 -162 -115 -186 -115 -10 0 -27 49 -37 106 -9 54 -9 78 1 104 9 23 13
130 5 130 -5 0 -8 -26 -8 -57 0 -37 -3 -53 -9 -44 -12 19 -5 175 8 179 6 2 12
-5 12 -15 1 -10 4 -4 8 12 4 17 3 32 -1 33 -5 2 -6 7 -3 11 2 4 5 49 6 100 2
72 6 94 18 101 12 7 12 9 2 10 -11 0 -11 3 -1 15 7 8 9 15 4 15 -5 1 2 10 15
20 13 11 18 20 12 20 -20 0 -12 29 11 41 15 8 18 14 10 17 -10 3 -10 7 0 19 7
8 13 21 14 28 1 7 10 25 20 41 14 21 20 24 22 12 2 -9 10 -19 19 -22z m-410
-32 c-12 -12 -25 7 -19 28 l5 22 10 -22 c6 -12 7 -25 4 -28z m83 10 c0 -13 -4
-24 -10 -24 -5 0 -10 14 -10 31 0 17 4 28 10 24 6 -3 10 -17 10 -31z m-130 0
c0 -11 -5 -14 -16 -10 -9 3 -18 6 -20 6 -3 0 -2 5 1 10 10 16 35 12 35 -6z
m335 -104 c3 -5 1 -10 -4 -10 -6 0 -11 5 -11 10 0 6 2 10 4 10 3 0 8 -4 11
-10z m-37 -290 c-1 -16 -5 -30 -10 -30 -4 0 -8 14 -8 30 0 17 4 30 9 30 5 0 9
-13 9 -30z m493 -67 c-9 -16 -10 -14 -11 12 0 21 3 26 11 18 8 -8 8 -16 0 -30z
m-2594 -439 c-3 -3 -12 -4 -19 -1 -8 3 -5 6 6 6 11 1 17 -2 13 -5z m-13 -49
c3 -8 3 -15 0 -15 -3 0 -12 7 -20 15 -13 13 -13 15 -1 15 8 0 17 -7 21 -15z
m-87 -31 c-3 -3 -12 -4 -19 -1 -8 3 -5 6 6 6 11 1 17 -2 13 -5z m58 -34 c4 -6
-13 -10 -45 -10 -32 0 -49 4 -45 10 3 6 24 10 45 10 21 0 42 -4 45 -10z m15
-40 c0 -6 -7 -13 -15 -16 -9 -4 -14 -11 -13 -18 1 -6 -22 -58 -51 -115 -29
-57 -57 -115 -62 -129 l-10 -26 26 28 c14 15 35 46 47 69 39 77 77 127 94 120
8 -3 50 -13 92 -22 90 -19 89 -14 40 -148 -27 -74 -33 -83 -63 -93 -18 -6 -61
-29 -95 -51 -33 -21 -62 -39 -64 -39 -1 0 -18 21 -36 47 -46 63 -106 116 -137
119 -22 3 -23 1 -8 -9 13 -10 3 -11 -49 -3 -69 11 -78 17 -27 18 20 1 31 6 31
15 0 8 -4 11 -10 8 -5 -3 -10 -1 -10 5 0 6 11 8 25 6 14 -3 23 -1 20 4 -6 10
19 66 42 92 14 16 17 16 34 -5 10 -12 18 -17 19 -10 0 6 -4 15 -10 18 -20 13
-8 23 73 61 l82 39 -63 3 c-58 3 -62 4 -52 22 9 17 22 20 80 20 42 0 70 -4 70
-10z m-196 -22 c-4 -7 -21 -33 -37 -56 -16 -24 -30 -56 -31 -71 -1 -15 -10
-38 -19 -51 -21 -29 -22 -15 -2 20 8 14 14 30 14 35 0 6 -9 -7 -20 -27 -17
-33 -39 -51 -39 -32 0 9 91 147 113 172 23 24 32 29 21 10z m75 -41 c-21 -14
-79 -35 -79 -28 0 14 23 29 50 33 24 4 38 1 29 -5z m1621 -52 c0 -17 -59 -57
-72 -49 -12 8 0 23 36 45 37 23 36 23 36 4z m-103 -11 c-3 -3 -12 -4 -19 -1
-8 3 -5 6 6 6 11 1 17 -2 13 -5z m190 -30 c-3 -3 -12 -4 -19 -1 -8 3 -5 6 6 6
11 1 17 -2 13 -5z m144 -21 c8 -8 -12 -11 -65 -11 -67 0 -75 2 -64 15 14 17
111 14 129 -4z m-207 -9 c4 -10 -4 -19 -27 -29 -17 -7 -35 -11 -39 -9 -15 10
-8 29 15 40 32 16 44 16 51 -2z m-1854 -49 c0 -8 -7 -15 -15 -15 -9 0 -12 6
-9 15 4 8 10 15 15 15 5 0 9 -7 9 -15z m2075 -9 c62 -29 131 -95 156 -149 21
-48 25 -147 8 -225 -12 -60 -58 -110 -133 -147 -41 -20 -64 -25 -130 -25 -72
0 -87 4 -133 30 -67 39 -91 84 -106 201 -10 77 -9 95 7 146 11 35 31 70 52 91
19 19 34 37 34 41 0 9 45 31 61 31 6 0 17 7 25 15 23 23 101 19 159 -9z m73 0
c29 -15 75 -72 70 -85 -2 -5 -30 15 -62 45 -58 53 -61 68 -8 40z m-2041 -92
c68 -33 118 -90 138 -157 17 -60 18 -172 1 -190 -6 -7 -13 -21 -14 -32 -6 -34
-49 -109 -79 -137 -15 -15 -54 -39 -87 -54 -50 -23 -68 -26 -126 -22 -123 9
-227 77 -279 182 -59 120 14 316 150 402 77 48 203 52 296 8z m323 -54 c0 -5
-4 -10 -9 -10 -4 0 -6 -12 -3 -27 4 -21 2 -25 -11 -20 -14 5 -15 2 -7 -18 6
-16 6 -25 0 -25 -6 0 -10 -6 -10 -14 0 -7 -6 -19 -14 -25 -8 -7 -12 -21 -9
-32 5 -18 2 -19 -23 -14 l-29 6 28 -16 c17 -10 25 -20 20 -28 -10 -15 -11 -97
-1 -97 4 0 9 -8 13 -19 3 -10 19 -21 35 -25 17 -3 30 -10 30 -16 0 -7 -7 -7
-22 1 -15 7 -12 1 10 -18 33 -29 34 -30 78 -15 24 8 41 18 38 23 -3 5 1 9 8 9
16 0 50 79 53 126 2 29 -2 37 -21 45 -29 10 -32 23 -5 14 23 -7 38 10 16 19
-8 3 -15 15 -15 26 0 23 31 27 76 10 15 -6 29 -8 32 -6 3 3 -7 10 -22 16 -22
8 -25 13 -17 29 8 15 7 20 -6 25 -9 4 -13 9 -10 12 9 9 48 -16 42 -27 -4 -5 1
-9 9 -9 12 0 27 -25 31 -50 0 -3 4 -11 8 -17 5 -9 2 -13 -10 -14 -15 0 -15 -2
3 -9 14 -5 23 -20 26 -40 5 -30 3 -32 -24 -26 -37 7 -36 -2 2 -15 29 -11 42
-39 18 -39 -9 0 -9 -3 1 -9 22 -14 -13 -115 -56 -162 -41 -45 -122 -79 -189
-79 -86 0 -255 112 -240 159 2 9 12 36 22 61 20 52 28 188 12 207 -6 7 -7 13
-4 13 4 0 2 9 -5 21 -9 17 -7 25 12 45 12 13 28 24 36 24 7 0 13 4 13 8 0 9
47 29 73 31 9 1 17 -3 17 -9z m210 -35 c14 -16 10 -18 -14 -9 -9 3 -16 10 -16
15 0 14 16 11 30 -6z m-165 -55 c8 -13 -5 -13 -25 0 -13 8 -13 10 2 10 9 0 20
-4 23 -10z m9 -79 c3 -4 -6 -6 -19 -3 -14 2 -25 6 -25 8 0 8 39 4 44 -5z m-14
-26 c10 -13 9 -15 -9 -15 -12 0 -21 6 -21 15 0 8 4 15 9 15 5 0 14 -7 21 -15z
m-40 -16 c0 -6 -4 -7 -10 -4 -5 3 -10 11 -10 16 0 6 5 7 10 4 6 -3 10 -11 10
-16z m80 -9 c0 -5 -8 -10 -17 -10 -15 0 -16 2 -3 10 19 12 20 12 20 0z m-100
-15 c19 -23 78 -30 99 -11 28 26 41 19 41 -21 0 -28 3 -34 10 -23 12 19 13 -1
1 -33 -29 -75 -172 -45 -181 39 -7 59 5 79 30 49z m90 -155 c0 -5 -8 -10 -17
-10 -15 0 -16 2 -3 10 19 12 20 12 20 0z"/>
<path d="M5421 4054 c0 -11 3 -14 6 -6 3 7 2 16 -1 19 -3 4 -6 -2 -5 -13z"/>
<path d="M5502 3855 c-1 -11 3 -38 7 -60 7 -34 9 -35 9 -10 0 35 -15 101 -16
70z"/>
<path d="M5522 3730 c0 -14 2 -19 5 -12 2 6 2 18 0 25 -3 6 -5 1 -5 -13z"/>
<path d="M5501 3624 c0 -11 3 -14 6 -6 3 7 2 16 -1 19 -3 4 -6 -2 -5 -13z"/>
<path d="M5542 3590 c0 -19 2 -27 5 -17 2 9 2 25 0 35 -3 9 -5 1 -5 -18z"/>
<path d="M5512 3540 c0 -19 2 -27 5 -17 2 9 2 25 0 35 -3 9 -5 1 -5 -18z"/>
<path d="M5910 3220 c0 -5 7 -7 15 -4 8 4 15 8 15 10 0 2 -7 4 -15 4 -8 0 -15
-4 -15 -10z"/>
<path d="M5940 3205 c-19 -14 -30 -25 -24 -25 10 0 73 49 63 50 -3 0 -20 -11
-39 -25z"/>
<path d="M5246 1739 c-14 -11 -24 -24 -21 -29 2 -4 -4 -19 -15 -33 -22 -27
-26 -77 -10 -108 13 -24 81 -59 116 -59 14 0 42 7 61 17 60 28 70 96 23 161
-31 43 -75 72 -108 72 -11 0 -31 -9 -46 -21z m137 -61 c24 -18 24 -57 -2 -104
-20 -38 -26 -42 -60 -42 -47 -1 -79 29 -77 71 1 15 -2 27 -6 27 -4 0 -5 7 -2
15 6 14 80 43 115 44 8 1 23 -5 32 -11z"/>
<path d="M3281 1717 c-53 -17 -111 -77 -113 -118 -3 -75 18 -139 46 -139 8 0
16 -5 18 -11 6 -17 123 -24 158 -9 38 16 66 55 79 109 12 56 -18 117 -74 147
-55 30 -75 33 -114 21z m114 -47 c3 -6 -4 -10 -18 -10 -14 0 -39 -3 -56 -6
-33 -7 -45 11 -13 19 32 9 81 7 87 -3z m-25 -40 c0 -5 14 -10 30 -10 35 0 35
-2 15 -62 -10 -27 -25 -49 -37 -55 -13 -6 -17 -12 -11 -16 6 -4 22 5 37 20 36
35 47 20 12 -16 -31 -33 -71 -49 -62 -26 4 12 -4 13 -39 8 -24 -3 -52 -2 -62
2 -16 7 -15 9 7 15 l25 8 -27 1 c-17 1 -33 10 -42 24 -16 24 -19 106 -3 84 7
-9 10 -9 14 1 2 6 13 12 23 12 10 0 22 5 25 10 3 6 26 10 51 10 24 0 44 -4 44
-10z m90 -20 c0 -5 -4 -10 -10 -10 -5 0 -10 5 -10 10 0 6 5 10 10 10 6 0 10
-4 10 -10z"/>
<path d="M3288 1623 c6 -2 18 -2 25 0 6 3 1 5 -13 5 -14 0 -19 -2 -12 -5z"/>
<path d="M3969 1604 c18 -8 36 -13 39 -10 6 6 -43 26 -61 25 -7 0 3 -7 22 -15z"/>
<path d="M3941 1586 c10 -9 69 -36 69 -32 0 6 -55 36 -66 36 -4 0 -5 -2 -3 -4z"/>
<path d="M3998 1383 c7 -3 16 -2 19 1 4 3 -2 6 -13 5 -11 0 -14 -3 -6 -6z"/>
<path d="M6998 5033 c6 -2 18 -2 25 0 6 3 1 5 -13 5 -14 0 -19 -2 -12 -5z"/>
<path d="M6678 5023 c6 -2 18 -2 25 0 6 3 1 5 -13 5 -14 0 -19 -2 -12 -5z"/>
<path d="M6858 5013 c7 -3 16 -2 19 1 4 3 -2 6 -13 5 -11 0 -14 -3 -6 -6z"/>
<path d="M4018 4903 c7 -3 16 -2 19 1 4 3 -2 6 -13 5 -11 0 -14 -3 -6 -6z"/>
<path d="M3871 4858 c-14 -23 -14 -23 8 -4 22 20 25 26 13 26 -4 0 -13 -10
-21 -22z"/>
<path d="M3561 4814 c0 -11 3 -14 6 -6 3 7 2 16 -1 19 -3 4 -6 -2 -5 -13z"/>
<path d="M3860 4821 c-8 -6 -17 -8 -21 -6 -3 3 -17 -7 -30 -21 -16 -17 -18
-23 -7 -19 9 4 19 13 22 21 3 9 10 13 14 10 5 -3 18 1 28 9 21 16 17 20 -6 6z"/>
<path d="M3919 4813 c-13 -16 -12 -17 4 -4 16 13 21 21 13 21 -2 0 -10 -8 -17
-17z"/>
<path d="M3725 4790 c-10 -11 -14 -20 -9 -20 5 0 15 9 22 20 7 11 11 20 9 20
-2 0 -12 -9 -22 -20z"/>
<path d="M3839 4753 c-13 -16 -12 -17 4 -4 16 13 21 21 13 21 -2 0 -10 -8 -17
-17z"/>
<path d="M3656 4685 c-26 -30 -44 -55 -39 -55 7 0 47 45 81 92 26 36 5 17 -42
-37z"/>
<path d="M3649 4633 c-13 -16 -12 -17 4 -4 9 7 17 15 17 17 0 8 -8 3 -21 -13z"/>
<path d="M4731 4474 c0 -11 3 -14 6 -6 3 7 2 16 -1 19 -3 4 -6 -2 -5 -13z"/>
<path d="M3898 4453 c7 -3 16 -2 19 1 4 3 -2 6 -13 5 -11 0 -14 -3 -6 -6z"/>
<path d="M3939 4315 c-8 -8 -37 -17 -64 -20 -90 -8 -185 -31 -206 -51 -28 -25
-45 -67 -80 -199 -67 -249 -81 -345 -84 -556 -1 -107 1 -213 5 -235 4 -21 8
-29 9 -17 2 31 11 34 72 17 69 -18 237 -44 289 -44 22 0 40 -4 40 -8 0 -5 14
-7 30 -4 17 2 30 0 30 -5 0 -6 -42 -51 -94 -101 -52 -51 -91 -94 -86 -97 5 -3
33 20 62 51 110 117 138 144 148 144 6 0 8 -6 4 -12 -6 -10 -4 -10 7 0 15 13
97 15 202 3 37 -4 67 -5 67 -2 0 4 44 6 98 6 99 -1 134 7 131 28 -2 13 5 36
26 82 7 17 16 62 20 101 6 75 -4 213 -14 195 -4 -5 -7 135 -7 312 0 177 -3
343 -8 370 -8 49 -26 65 -26 22 0 -27 27 -27 -239 0 -79 8 -181 15 -226 15
-48 0 -85 4 -87 10 -2 6 -10 4 -19 -5z m196 -56 c6 -2 9 -6 9 -9 -8 -31 -12
-190 -6 -194 10 -6 36 43 27 52 -3 3 -5 0 -5 -6 0 -7 -4 -12 -9 -12 -5 0 -7
30 -4 68 6 102 10 112 38 112 13 0 26 -4 30 -10 3 -5 12 -7 20 -4 11 5 15 -9
17 -68 2 -40 7 -72 12 -71 5 0 25 31 44 67 34 66 51 81 53 49 1 -17 2 -17 6 0
2 9 14 17 25 17 15 0 18 -5 14 -16 -5 -14 -4 -15 8 -5 15 13 56 6 56 -9 0 -4
9 -6 19 -3 19 5 20 -4 21 -364 0 -344 -6 -471 -20 -368 -3 22 -6 -14 -5 -80 0
-66 3 -122 7 -125 3 -3 0 -14 -8 -24 -7 -11 -16 -18 -18 -15 -10 10 -24 265
-15 281 5 9 9 26 9 37 0 10 6 21 13 24 6 2 8 8 4 13 -11 12 -22 -9 -37 -72 -8
-30 -17 -57 -20 -59 -4 -3 -11 31 -14 75 -4 44 -11 80 -15 80 -15 0 -31 -25
-31 -50 0 -42 -22 -140 -31 -140 -5 0 -9 17 -10 38 0 20 -4 55 -8 77 l-9 40
-1 -50 c0 -28 -10 -75 -21 -105 -11 -30 -20 -65 -20 -78 0 -15 -4 -21 -11 -16
-14 9 -5 152 10 167 6 6 11 27 10 46 -1 36 -1 36 -18 -14 l-16 -50 -3 50 c-5
82 -22 78 -23 -6 -1 -100 -11 -161 -28 -167 -11 -4 -13 17 -9 117 2 66 1 121
-3 121 -4 0 -12 19 -17 43 -9 37 -10 30 -11 -59 -1 -55 -7 -127 -13 -160 l-13
-59 -5 80 c-4 66 -8 80 -21 77 -11 -1 -16 7 -16 30 -1 18 -5 51 -11 73 -10 40
-10 39 -11 -25 -1 -36 -8 -90 -16 -120 l-13 -55 -1 46 c-1 33 -6 49 -17 53
-13 5 -15 16 -10 64 4 38 3 50 -3 37 -5 -11 -10 -35 -10 -54 -1 -27 -4 -31
-15 -22 -8 6 -20 10 -27 9 -12 -2 -14 45 -13 267 1 256 2 272 22 315 l22 45
-5 -80 c-3 -44 -8 -105 -11 -135 -4 -40 -3 -51 5 -40 6 8 11 24 11 35 0 21 57
255 63 262 2 1 11 -5 21 -16 15 -16 16 -28 6 -102 -19 -151 -11 -149 29 11 33
128 34 137 20 123 -20 -20 -29 -16 -29 12 0 21 3 23 23 16 12 -5 27 -10 32
-12z m193 -4 c6 -6 -52 -114 -59 -109 -5 3 -5 96 0 123 1 3 54 -9 59 -14z
m139 9 c-3 -3 -12 -4 -19 -1 -8 3 -5 6 6 6 11 1 17 -2 13 -5z m-450 -26 c-3
-8 -6 -5 -6 6 -1 11 2 17 5 13 3 -3 4 -12 1 -19z m-107 3 c0 -6 -4 -13 -10
-16 -5 -3 -10 1 -10 9 0 9 5 16 10 16 6 0 10 -4 10 -9z m-180 -11 c0 -5 -7
-10 -16 -10 -8 0 -12 5 -9 10 3 6 10 10 16 10 5 0 9 -4 9 -10z m210 6 c0 -2
-9 -32 -20 -66 -11 -34 -20 -71 -20 -80 0 -27 -38 -110 -50 -110 -11 0 -13 14
-4 47 4 13 10 21 14 18 5 -3 11 8 14 25 3 16 9 44 12 60 3 17 9 30 14 30 4 0
11 18 15 40 4 22 11 40 16 40 5 0 9 -2 9 -4z m-126 -97 c-8 -46 -20 -88 -25
-93 -14 -15 -11 28 6 98 20 78 24 90 30 84 3 -3 -2 -43 -11 -89z m-94 61 c0
-5 -5 -10 -11 -10 -5 0 -7 5 -4 10 3 6 8 10 11 10 2 0 4 -4 4 -10z m380 3 c0
-5 -5 -15 -10 -23 -8 -12 -10 -11 -10 8 0 12 5 22 10 22 6 0 10 -3 10 -7z
m-245 -82 c-4 -23 -10 -41 -15 -41 -4 0 -4 17 1 38 5 20 9 41 9 46 0 5 3 7 6
3 3 -3 3 -24 -1 -46z m-76 -211 c-4 -60 -15 -162 -25 -225 -16 -107 -19 -113
-28 -83 -9 25 -7 62 6 153 19 139 22 199 4 108 -14 -70 -32 -101 -23 -38 4 22
7 57 7 79 0 33 3 38 19 33 16 -4 21 2 26 32 6 32 13 51 18 51 1 0 -1 -49 -4
-110z m-95 46 c-3 -15 -8 -25 -11 -23 -2 3 -1 17 3 31 3 15 8 25 11 23 2 -3 1
-17 -3 -31z m232 -63 c-11 -130 -35 -284 -52 -320 -8 -17 -14 -36 -14 -43 0
-23 -18 1 -24 33 -8 42 9 206 34 322 14 65 18 75 14 38 -6 -66 11 -70 21 -5 4
26 9 50 12 55 12 20 15 -1 9 -80z m-88 -35 c-5 -40 -8 -93 -8 -118 0 -81 -11
-140 -26 -140 -8 0 -14 -5 -14 -11 0 -5 -4 -7 -10 -4 -24 15 7 202 55 333 10
27 11 9 3 -60z m-211 40 c-3 -8 -6 -5 -6 6 -1 11 2 17 5 13 3 -3 4 -12 1 -19z
m-18 -81 c-7 -31 -16 -57 -20 -57 -12 0 -11 5 8 66 21 68 26 64 12 -9z m32
-10 c-1 -4 -1 -23 -1 -42 0 -24 -5 -35 -15 -35 -16 0 -21 43 -9 75 6 15 26 17
25 2z m50 -194 c-8 -15 -10 -11 -11 18 0 20 3 52 8 70 7 32 7 31 10 -18 2 -29
-2 -61 -7 -70z m718 -130 c1 -16 -4 -21 -20 -20 -18 1 -19 6 -14 42 12 74 18
84 26 40 4 -22 8 -50 8 -62z m-689 -25 c-1 -35 -3 -40 -11 -25 -10 17 -5 67 6
67 3 0 5 -19 5 -42z m240 -11 c0 -34 -7 -50 -19 -42 -10 6 0 75 10 75 5 0 9
-15 9 -33z m-174 -85 c-12 -11 -14 4 -8 53 l7 50 3 -49 c2 -26 1 -51 -2 -54z
m774 43 c0 -19 -4 -37 -10 -40 -6 -4 -10 12 -10 40 0 28 4 44 10 40 6 -3 10
-21 10 -40z m-141 -22 c1 -7 -3 -13 -9 -13 -5 0 -10 15 -9 33 0 27 2 29 9 12
5 -11 9 -26 9 -32z m-512 -35 c-2 -13 -4 -5 -4 17 -1 22 1 32 4 23 2 -10 2
-28 0 -40z m394 -31 c-13 -13 -14 5 -3 54 l7 34 3 -39 c2 -21 -1 -43 -7 -49z
m45 -7 l-14 -45 -1 51 c-1 28 4 56 12 63 19 19 20 -15 3 -69z m100 22 c-12
-12 -18 8 -10 35 l8 28 4 -28 c2 -16 1 -31 -2 -35z m-446 -27 c0 -25 -4 -45
-10 -45 -11 0 -13 33 -4 68 10 34 14 27 14 -23z m50 -20 c0 -19 -4 -35 -10
-35 -11 0 -13 30 -4 54 10 25 14 19 14 -19z m-180 10 c0 -8 -4 -15 -10 -15 -5
0 -10 7 -10 15 0 8 5 15 10 15 6 0 10 -7 10 -15z m287 -40 c-1 -28 -7 -45 -14
-45 -14 0 -17 39 -7 77 10 37 24 16 21 -32z m-289 3 c-6 -18 -25 -21 -25 -3 0
8 7 15 15 15 7 0 12 -5 10 -12z m502 -18 c0 -11 -4 -20 -10 -20 -5 0 -10 9
-10 20 0 11 5 20 10 20 6 0 10 -9 10 -20z m-140 0 c0 -5 -5 -10 -11 -10 -5 0
-7 5 -4 10 3 6 8 10 11 10 2 0 4 -4 4 -10z m77 -12 c-3 -8 -6 -5 -6 6 -1 11 2
17 5 13 3 -3 4 -12 1 -19z"/>
<path d="M4191 4186 c-12 -32 -20 -61 -17 -63 2 -2 10 13 16 34 7 21 17 43 22
50 6 7 8 18 6 25 -3 7 -15 -13 -27 -46z"/>
<path d="M4200 3685 c-7 -9 -10 -18 -6 -22 3 -3 6 0 7 8 1 8 5 3 9 -11 8 -24
8 -23 9 8 1 36 -1 38 -19 17z"/>
<path d="M4087 3670 c-4 -14 -6 -38 -6 -55 1 -24 3 -21 10 15 10 49 7 80 -4
40z"/>
<path d="M4182 3630 c0 -14 2 -19 5 -12 2 6 2 18 0 25 -3 6 -5 1 -5 -13z"/>
<path d="M4275 3619 c-4 -5 -4 -13 -1 -16 3 -4 6 0 6 8 0 11 2 11 10 -1 6 -9
10 -10 10 -3 0 17 -17 25 -25 12z"/>
<path d="M1019 4214 c12 -19 21 -39 21 -44 0 -5 -17 -14 -37 -20 -21 -7 -61
-23 -90 -36 -28 -12 -84 -34 -125 -48 -115 -39 -191 -73 -176 -78 8 -3 0 -13
-22 -26 -38 -23 -50 -22 -29 4 13 16 12 16 -9 5 -13 -7 -21 -15 -18 -18 3 -3
-4 -19 -15 -35 -21 -29 -20 -28 46 12 37 23 69 40 70 38 6 -6 84 -178 90 -199
6 -17 -6 -33 -55 -82 -35 -33 -78 -86 -98 -116 -19 -31 -40 -59 -45 -62 -5 -4
-7 -11 -4 -16 3 -5 0 -27 -8 -49 -17 -47 -19 -74 -5 -74 6 0 15 10 20 23 5 12
17 32 27 44 l18 22 25 -20 c49 -39 166 -116 242 -159 l77 -44 86 -142 c47 -79
85 -149 85 -157 0 -8 -28 -38 -62 -67 -106 -88 -269 -232 -333 -292 -47 -44
-64 -55 -73 -46 -7 7 -12 17 -12 24 0 6 -6 16 -13 22 -11 9 -13 -3 -13 -62 1
-65 3 -72 19 -68 12 3 39 -17 85 -65 37 -38 93 -86 125 -107 31 -20 57 -41 57
-47 0 -5 -10 -13 -22 -18 -25 -10 -68 -62 -68 -83 0 -7 -10 -29 -22 -48 -37
-61 -78 -139 -78 -151 0 -10 24 18 70 81 l15 21 145 -34 c80 -19 192 -42 250
-51 155 -25 146 -15 104 -99 l-36 -72 45 49 c25 27 53 63 63 82 15 27 25 33
63 39 44 7 45 8 19 17 -16 5 -28 15 -28 21 0 14 150 262 206 342 23 33 65 85
93 115 l50 55 21 -25 c12 -14 36 -48 55 -76 45 -70 66 -83 114 -74 48 9 117
48 151 86 23 26 22 25 -13 -4 -41 -35 -101 -69 -96 -54 8 19 128 111 131 100
2 -6 19 19 37 56 20 41 38 66 49 66 12 0 13 3 5 11 -6 6 -10 25 -8 43 1 17 1
23 -2 14 -3 -14 -14 -9 -59 24 -30 23 -50 44 -45 48 6 3 -13 18 -42 32 -49 24
-195 130 -335 243 -55 45 -61 53 -57 80 4 22 2 26 -5 15 -7 -11 -10 -6 -10 20
0 19 -3 46 -5 60 -5 21 -3 20 11 -7 21 -40 30 -43 85 -33 24 4 134 14 244 21
165 11 192 14 155 22 -25 4 -136 6 -247 4 -112 -2 -203 -1 -203 2 0 3 19 26
41 51 42 46 243 283 282 332 12 15 30 27 40 28 11 0 17 8 17 23 0 14 16 39 40
62 27 26 37 42 30 49 -7 7 -22 -2 -45 -24 -30 -29 -37 -32 -45 -20 -5 8 -10
20 -10 26 0 22 -82 125 -127 159 -26 20 -72 43 -102 51 -31 9 -57 18 -59 19
-2 2 6 22 17 46 25 50 26 59 7 59 -7 0 -23 -23 -34 -50 -19 -45 -24 -50 -45
-44 -30 7 -45 -12 -17 -21 11 -3 20 -10 20 -14 0 -4 -31 -73 -69 -152 -38 -79
-81 -177 -97 -216 -15 -40 -31 -73 -34 -73 -12 0 -119 165 -178 275 -32 61
-82 152 -111 203 -29 51 -64 121 -78 155 -14 34 -33 70 -44 80 -10 10 -26 31
-34 47 -9 17 -20 30 -26 30 -6 0 -2 -16 10 -36z m69 -143 c13 -24 21 -50 18
-58 -3 -8 2 -13 12 -13 15 -1 15 -3 -3 -17 -16 -13 -17 -15 -2 -10 14 5 28
-15 76 -116 32 -67 81 -156 108 -197 27 -41 71 -113 98 -160 27 -47 53 -88 58
-91 5 -3 7 -21 5 -40 -3 -34 -3 -34 -50 -31 -30 2 -61 -3 -85 -14 l-36 -18
-26 34 c-60 79 -143 170 -151 165 -4 -2 -13 2 -20 10 -7 8 -9 15 -4 15 4 0
-12 20 -36 45 -25 25 -51 43 -58 40 -7 -2 -11 -1 -8 4 3 5 -6 20 -21 32 -55
49 -113 110 -113 119 0 6 7 13 15 15 50 16 50 16 36 24 -15 9 -65 0 -98 -17
-33 -18 -40 -15 -52 20 -6 17 -10 32 -9 32 35 17 57 26 76 31 12 4 22 11 22
16 0 5 10 9 23 9 13 0 56 11 95 25 39 14 80 25 89 25 14 0 15 2 4 9 -8 5 -26
4 -45 -4 -17 -7 -56 -18 -86 -25 -30 -7 -78 -24 -107 -37 -30 -12 -59 -23 -66
-23 -16 0 -51 95 -42 110 10 16 154 85 240 114 96 34 115 31 143 -23z m757
-223 c28 -17 53 -36 57 -42 3 -6 21 -27 40 -47 18 -20 41 -58 50 -84 l18 -47
-47 -57 c-26 -31 -50 -59 -53 -64 -4 -4 -24 10 -46 31 -22 21 -76 66 -120 101
-78 63 -77 62 29 -38 59 -57 107 -108 107 -115 0 -11 -59 -86 -143 -180 -19
-21 -39 -36 -45 -32 -6 4 -8 -2 -4 -16 4 -16 2 -19 -9 -12 -8 5 -18 9 -24 9
-10 0 -57 35 -117 86 -24 20 -29 31 -23 48 4 15 12 20 22 16 13 -5 14 -3 3 11
-8 9 -10 18 -4 22 5 4 10 12 11 17 1 6 5 19 9 29 6 15 4 17 -6 11 -9 -5 -11
-4 -6 4 4 6 11 9 16 6 11 -7 25 41 21 69 -1 10 2 16 8 12 6 -4 17 16 26 48 9
31 21 58 26 61 5 4 9 14 9 24 0 10 16 53 35 95 l36 77 37 -7 c20 -3 60 -20 87
-36z m-951 -149 c55 -68 123 -139 133 -139 4 0 2 5 -5 12 -17 17 -15 33 3 18
8 -7 15 -21 15 -31 0 -17 11 -24 33 -20 5 1 6 -3 3 -8 -6 -9 71 -91 85 -91 9
0 119 -135 119 -146 0 -5 -14 -29 -30 -53 -17 -24 -35 -61 -40 -83 -6 -21 -14
-38 -17 -38 -11 0 -201 120 -213 135 -7 8 -17 12 -22 9 -6 -4 -7 2 -3 17 7 22
6 23 -7 6 -12 -17 -15 -17 -27 -4 -10 13 -9 21 4 46 8 17 13 31 11 31 -3 0
-13 -15 -22 -32 -12 -24 -19 -29 -23 -18 -3 8 -13 16 -21 18 -29 5 -90 35 -90
44 0 18 74 137 131 211 30 40 14 33 -24 -10 -56 -63 -89 -112 -106 -158 l-17
-45 -77 50 c-42 28 -79 55 -82 60 -8 12 32 94 56 116 10 9 19 22 19 27 0 13
77 97 109 119 15 10 33 18 41 18 8 0 37 -27 64 -61z m616 -353 c0 -3 -4 -8
-10 -11 -5 -3 -10 -1 -10 4 0 6 5 11 10 11 6 0 10 -2 10 -4z m-140 -36 c-20
-13 -50 -13 -50 0 0 6 15 10 33 10 24 0 28 -3 17 -10z m161 -7 c13 -16 12 -17
-3 -4 -10 7 -18 15 -18 17 0 8 8 3 21 -13z m-111 -23 c12 -8 10 -10 -10 -11
-23 -1 -23 -2 5 -8 17 -4 38 -3 48 2 10 5 21 6 25 3 3 -3 -1 -6 -9 -6 -7 0 -2
-7 11 -17 14 -9 37 -27 52 -41 14 -13 30 -24 35 -23 4 0 8 -7 8 -17 1 -29 16
-63 26 -57 13 9 11 -11 -6 -53 -26 -61 -65 -110 -97 -121 -38 -14 -115 -14
-123 -1 -3 5 -12 7 -20 3 -23 -8 -86 38 -90 67 -1 3 -8 19 -17 35 -9 17 -19
47 -23 68 -7 34 -4 40 31 75 22 21 50 46 64 55 14 10 19 15 11 11 -25 -13 -62
-13 -58 -1 2 7 11 11 20 11 10 -1 14 3 10 9 -4 6 0 8 10 4 8 -3 21 1 27 9 14
16 48 18 70 4z m125 -20 c16 -16 24 -30 19 -30 -6 0 -23 14 -39 30 -16 17 -24
30 -19 30 6 0 23 -13 39 -30z m69 -17 c10 -24 -10 -13 -34 19 l-23 31 26 -19
c14 -10 28 -25 31 -31z m-64 -18 c7 -8 8 -15 2 -15 -5 0 -15 7 -22 15 -7 8 -8
15 -2 15 5 0 15 -7 22 -15z m-437 -70 c83 -49 85 -51 89 -93 3 -40 1 -44 -35
-69 -20 -14 -39 -24 -40 -22 -2 2 -10 20 -17 39 -8 19 -33 70 -57 114 -24 43
-43 81 -43 83 0 7 13 1 103 -52z m604 -21 c-3 -3 -12 -4 -19 -1 -8 3 -5 6 6 6
11 1 17 -2 13 -5z m-459 -138 c3 -12 -1 -17 -10 -14 -7 3 -15 13 -16 22 -3 12
1 17 10 14 7 -3 15 -13 16 -22z m-42 -15 c-4 -5 0 -12 6 -14 7 -3 4 -6 -7 -7
-12 0 6 -14 48 -36 37 -19 67 -39 67 -44 0 -19 -27 -21 -66 -6 -36 15 -37 15
-19 0 l20 -16 -20 5 c-11 2 -29 8 -40 11 -11 4 -4 -2 15 -13 39 -22 54 -26 45
-11 -7 12 -3 12 19 4 17 -7 22 -44 6 -44 -5 0 -10 -7 -10 -15 0 -9 -15 -48
-34 -88 -19 -40 -52 -111 -75 -159 -23 -48 -41 -92 -41 -97 0 -25 -16 -15
-190 124 -25 19 -57 43 -72 53 -34 21 -34 25 -3 46 24 16 27 15 73 -16 26 -19
76 -55 110 -82 35 -26 65 -46 68 -43 3 2 -6 11 -19 20 -14 9 -51 39 -83 68
-33 28 -72 56 -87 61 -15 6 -27 13 -25 17 2 4 41 42 88 84 64 58 89 76 105 71
15 -4 17 -3 6 5 -24 16 6 44 38 36 16 -3 21 -2 13 3 -10 7 -8 42 3 42 1 0 33
-14 69 -31 37 -17 69 -29 72 -26 3 2 -25 17 -61 32 -36 15 -65 30 -65 33 0 5
41 42 47 42 2 0 2 -4 -1 -9z m467 -57 c4 -1 11 -2 15 -3 5 0 31 -23 58 -49 27
-26 70 -60 97 -75 52 -30 56 -40 30 -71 -15 -18 -14 -18 8 2 30 26 42 27 59 7
10 -12 9 -20 -3 -39 -25 -37 -89 -108 -135 -151 l-43 -38 -17 24 c-9 13 -16
28 -14 32 1 5 -2 6 -7 3 -8 -6 -109 122 -123 157 -4 9 -12 17 -18 17 -5 0 -10
6 -10 14 0 8 -6 16 -12 19 -8 3 15 32 57 72 39 37 62 65 53 62 -10 -4 -18 -2
-18 3 0 6 -4 10 -9 10 -6 0 -8 -9 -6 -21 4 -17 2 -19 -11 -8 -13 10 -13 14 2
30 9 10 22 15 28 11 6 -3 14 -7 19 -8z m-279 -22 c2 -4 -4 -13 -14 -20 -16
-10 -18 -8 -17 8 1 20 21 27 31 12z m73 -8 c-3 -3 -12 -4 -19 -1 -8 3 -5 6 6
6 11 1 17 -2 13 -5z m46 -15 c-6 -6 -9 -17 -7 -24 3 -7 0 -16 -7 -21 -9 -5
-10 -2 -5 11 5 15 4 16 -9 5 -8 -7 -15 -10 -15 -7 0 3 -3 13 -7 23 -5 13 -3
16 10 11 9 -3 19 -2 22 3 4 6 11 10 18 10 8 0 8 -3 0 -11z m47 -34 c-19 -19
-39 -35 -44 -35 -11 1 62 70 73 70 3 0 -10 -16 -29 -35z m-101 -35 c27 -27 38
-46 34 -57 -5 -11 -3 -14 6 -8 14 8 81 -60 151 -152 22 -28 44 -54 50 -58 17
-11 11 -22 -19 -34 -32 -14 -49 -36 -173 -226 -173 -266 -179 -275 -202 -275
-17 0 -18 -2 -6 -10 11 -7 6 -10 -20 -9 -29 0 -31 2 -15 9 13 6 -20 9 -91 9
-90 1 -133 7 -220 30 -60 16 -117 32 -126 36 -11 4 -18 3 -18 -3 0 -6 12 -15
28 -20 l27 -10 -30 -1 c-16 0 -34 3 -40 7 -13 10 -17 32 -6 32 16 0 69 62 87
102 18 40 27 44 67 29 45 -17 38 2 -9 26 -93 47 -234 152 -234 175 0 5 19 -5
43 -22 l42 -32 -40 36 c-22 20 -55 46 -72 59 -18 12 -33 27 -33 34 0 12 132
138 161 153 19 10 49 -10 208 -139 100 -82 101 -86 55 -148 -13 -17 -24 -41
-24 -52 0 -25 -35 -50 -63 -45 -21 4 -21 4 -2 -4 11 -5 26 -7 32 -5 7 3 -3
-26 -22 -65 -40 -82 -45 -97 -27 -97 24 0 155 249 252 478 41 96 68 147 77
147 10 0 13 6 9 16 -4 9 -2 13 5 8 7 -4 9 0 5 13 -4 13 1 26 14 38 11 10 17
21 15 26 -6 8 12 22 34 26 7 1 18 6 24 12 17 17 23 14 66 -29z m604 -163 c42
-33 77 -64 77 -68 0 -9 -71 -103 -81 -107 -26 -11 -134 -100 -134 -111 0 -22
-32 -38 -47 -23 -9 9 -7 12 13 13 l24 1 -25 7 c-26 7 -109 106 -110 132 0 20
64 82 75 72 4 -5 5 -3 1 4 -4 7 2 17 13 23 11 5 36 37 57 70 22 35 41 57 48
53 6 -4 46 -34 89 -66z m-353 -161 c0 -3 -4 -8 -10 -11 -5 -3 -10 -1 -10 4 0
6 5 11 10 11 6 0 10 -2 10 -4z m-69 -54 c-5 -10 -18 -25 -28 -33 -12 -10 -11
-5 6 19 24 35 38 43 22 14z m-674 -428 c-3 -3 -12 -4 -19 -1 -8 3 -5 6 6 6 11
1 17 -2 13 -5z"/>
<path d="M1750 3529 c19 -19 49 -45 65 -59 27 -22 26 -21 -5 13 -19 22 -48 48
-65 60 -28 19 -27 18 5 -14z"/>
<path d="M1600 3383 c1 -11 50 -70 50 -59 0 4 -11 21 -25 38 -14 16 -25 26
-25 21z"/>
<path d="M1559 3363 c5 -10 22 -29 37 -43 26 -23 25 -22 -5 18 -34 43 -49 55
-32 25z"/>
<path d="M940 3518 c-62 -83 -127 -187 -105 -166 5 4 15 2 23 -4 25 -21 39
-17 52 18 8 19 17 34 20 34 4 0 12 11 18 25 11 24 10 25 -8 15 -11 -6 -25 -20
-31 -31 -6 -11 -13 -18 -16 -15 -4 3 -13 0 -22 -7 -14 -10 -13 -9 1 13 9 14
21 24 27 23 8 -2 81 108 81 123 0 13 -19 0 -40 -28z"/>
<path d="M994 3538 c-38 -64 -38 -65 -10 -35 14 15 26 32 26 38 0 13 -7 11
-16 -3z"/>
<path d="M1030 3440 c-6 -11 -8 -20 -6 -20 3 0 10 9 16 20 6 11 8 20 6 20 -3
0 -10 -9 -16 -20z"/>
<path d="M1397 3162 c-15 -9 -30 -28 -34 -40 -7 -28 13 -102 27 -102 14 0 12
22 -5 43 -23 31 2 84 38 78 4 0 7 6 7 14 0 18 26 20 37 3 4 -7 13 -31 20 -53
l11 -40 1 36 c1 25 -6 42 -22 57 -28 26 -43 27 -80 4z"/>
<path d="M1441 3034 c-29 -34 -9 -38 23 -5 18 19 22 28 12 28 -9 0 -24 -11
-35 -23z"/>
<path d="M1190 2900 c8 -5 20 -10 25 -10 6 0 3 5 -5 10 -8 5 -19 10 -25 10 -5
0 -3 -5 5 -10z"/>
<path d="M1127 2869 c7 -7 15 -10 18 -7 3 3 -2 9 -12 12 -14 6 -15 5 -6 -5z"/>
<path d="M1204 2836 c11 -9 24 -16 30 -16 12 0 7 5 -24 19 -24 11 -24 11 -6
-3z"/>
<path d="M1779 2603 c-13 -16 -12 -17 4 -4 9 7 17 15 17 17 0 8 -8 3 -21 -13z"/>
<path d="M1386 2754 c-57 -66 -57 -83 0 -22 34 36 61 78 51 78 -2 0 -25 -25
-51 -56z"/>
<path d="M805 2340 c7 -12 125 -83 129 -79 2 2 -27 23 -65 46 -38 23 -67 38
-64 33z"/>
<path d="M1100 2226 c0 -3 30 -14 68 -25 106 -31 126 -35 119 -23 -4 5 -42 18
-84 27 -43 10 -83 20 -90 22 -7 3 -13 3 -13 -1z"/>
<path d="M1308 2163 c7 -3 16 -2 19 1 4 3 -2 6 -13 5 -11 0 -14 -3 -6 -6z"/>
<path d="M1163 4182 c-26 -11 -24 -12 22 -6 28 4 54 10 58 14 13 12 -49 6 -80
-8z"/>
<path d="M3240 4157 c0 -9 3 -17 8 -17 4 0 15 -12 24 -27 10 -16 18 -23 18
-17 0 5 -11 25 -25 44 -17 23 -25 28 -25 17z"/>
<path d="M3372 3860 c0 -14 2 -19 5 -12 2 6 2 18 0 25 -3 6 -5 1 -5 -13z"/>
<path d="M3371 3774 c0 -11 3 -14 6 -6 3 7 2 16 -1 19 -3 4 -6 -2 -5 -13z"/>
<path d="M3003 3543 c9 -2 23 -2 30 0 6 3 -1 5 -18 5 -16 0 -22 -2 -12 -5z"/>
<path d="M2708 3223 c6 -2 18 -2 25 0 6 3 1 5 -13 5 -14 0 -19 -2 -12 -5z"/>
<path d="M3150 3148 c-25 -5 -49 -15 -55 -20 -7 -8 -4 -9 10 -3 11 4 50 10 88
13 37 2 67 8 67 13 0 11 -51 10 -110 -3z"/>
<path d="M3865 3140 c-10 -11 -16 -22 -14 -24 2 -2 12 7 22 20 22 29 17 32 -8
4z"/>
<path d="M3295 3143 c11 -3 24 -9 30 -14 5 -5 16 -9 24 -9 11 0 10 4 -5 15
-10 8 -30 14 -44 14 -20 -1 -21 -2 -5 -6z"/>
<path d="M3375 3110 c3 -5 11 -10 16 -10 6 0 7 5 4 10 -3 6 -11 10 -16 10 -6
0 -7 -4 -4 -10z"/>
<path d="M5422 3085 c-51 -35 -51 -40 -2 -15 54 27 54 27 43 33 -4 3 -23 -5
-41 -18z"/>
<path d="M3040 3083 c-13 -15 -12 -16 4 -10 10 4 22 7 27 7 6 0 7 5 4 10 -9
14 -18 12 -35 -7z"/>
<path d="M3411 3097 c2 -1 13 -9 24 -17 19 -14 19 -14 6 3 -7 9 -18 17 -24 17
-6 0 -8 -1 -6 -3z"/>
<path d="M3138 3083 c7 -3 16 -2 19 1 4 3 -2 6 -13 5 -11 0 -14 -3 -6 -6z"/>
<path d="M3825 3069 c-4 -6 -5 -12 -2 -15 2 -3 7 2 10 11 7 17 1 20 -8 4z"/>
<path d="M5334 3034 c-18 -14 -18 -14 6 -3 31 14 36 19 24 19 -6 0 -19 -7 -30
-16z"/>
<path d="M3859 3003 c-13 -16 -12 -17 4 -4 16 13 21 21 13 21 -2 0 -10 -8 -17
-17z"/>
<path d="M2970 2999 c0 -5 5 -7 10 -4 6 3 10 8 10 11 0 2 -4 4 -10 4 -5 0 -10
-5 -10 -11z"/>
<path d="M5222 2992 c-13 -10 -20 -21 -16 -24 10 -10 66 21 59 32 -9 14 -17
12 -43 -8z"/>
<path d="M3462 2980 c0 -14 2 -19 5 -12 2 6 2 18 0 25 -3 6 -5 1 -5 -13z"/>
<path d="M5318 2984 c-38 -20 -36 -28 2 -9 17 9 30 18 30 20 0 7 -1 6 -32 -11z"/>
<path d="M3820 2975 c0 -2 10 -10 23 -16 20 -11 21 -11 8 4 -13 16 -31 23 -31
12z"/>
<path d="M2884 2952 c-13 -9 -25 -50 -15 -56 4 -3 8 5 8 16 1 11 10 26 20 34
18 14 7 20 -13 6z"/>
<path d="M5145 2928 l-30 -31 38 28 c20 15 37 29 37 31 0 11 -18 0 -45 -28z"/>
<path d="M2447 2903 c-12 -11 -8 -20 11 -26 9 -2 26 -8 37 -12 15 -6 14 -3 -5
11 -14 10 -28 22 -31 26 -3 5 -8 5 -12 1z"/>
<path d="M3917 2895 c3 -8 9 -12 14 -9 12 7 11 11 -5 17 -10 4 -13 1 -9 -8z"/>
<path d="M3420 2880 c-9 -6 -10 -10 -3 -10 6 0 15 5 18 10 8 12 4 12 -15 0z"/>
<path d="M5103 2852 c-1 -32 0 -33 7 -12 11 33 12 50 3 50 -5 0 -9 -17 -10
-38z"/>
<path d="M2374 2862 c-17 -27 -29 -86 -15 -78 16 10 13 -10 -3 -23 -14 -12
-18 -51 -5 -51 4 0 14 16 23 35 13 27 14 38 5 53 -9 15 -9 26 4 51 16 33 9 43
-9 13z"/>
<path d="M2530 2856 c0 -2 7 -7 16 -10 8 -3 12 -2 9 4 -6 10 -25 14 -25 6z"/>
<path d="M3951 2849 c-1 -8 6 -24 15 -35 15 -19 15 -19 6 1 -5 11 -12 27 -15
35 -5 13 -6 13 -6 -1z"/>
<path d="M2600 2826 c0 -3 9 -10 20 -16 11 -6 20 -8 20 -6 0 3 -9 10 -20 16
-11 6 -20 8 -20 6z"/>
<path d="M2955 2824 c6 -5 23 -20 40 -34 29 -24 29 -24 10 -2 -11 13 -29 28
-40 34 -11 6 -15 6 -10 2z"/>
<path d="M2640 2775 c0 -8 4 -15 10 -15 5 0 7 7 4 15 -4 8 -8 15 -10 15 -2 0
-4 -7 -4 -15z"/>
<path d="M2425 2769 c-4 -6 -5 -12 -2 -15 2 -3 7 2 10 11 7 17 1 20 -8 4z"/>
<path d="M4013 2773 c9 -2 23 -2 30 0 6 3 -1 5 -18 5 -16 0 -22 -2 -12 -5z"/>
<path d="M4708 2773 c7 -3 16 -2 19 1 4 3 -2 6 -13 5 -11 0 -14 -3 -6 -6z"/>
<path d="M3055 2740 c3 -5 8 -10 11 -10 2 0 4 5 4 10 0 6 -5 10 -11 10 -5 0
-7 -4 -4 -10z"/>
<path d="M2415 2679 c-9 -17 -15 -33 -13 -35 3 -2 12 12 21 31 21 43 13 47 -8
4z"/>
<path d="M4372 2651 c-108 -56 -161 -91 -135 -91 7 0 29 11 49 25 20 14 55 30
78 36 45 12 68 27 61 39 -3 4 9 13 25 20 17 7 33 17 36 21 7 13 10 14 -114
-50z"/>
<path d="M2337 2680 c-3 -11 -1 -20 4 -20 5 0 9 2 9 4 0 2 3 11 6 20 3 9 2 16
-4 16 -5 0 -12 -9 -15 -20z"/>
<path d="M2350 2636 c0 -8 -3 -23 -7 -33 -3 -10 -3 -15 2 -11 4 4 14 3 22 -3
9 -8 13 -8 13 -1 0 6 -5 14 -10 17 -6 4 -8 15 -5 26 4 11 2 19 -4 19 -6 0 -11
-6 -11 -14z"/>
<path d="M2523 2613 c-18 -37 -11 -39 11 -3 9 17 14 30 9 30 -4 0 -14 -12 -20
-27z"/>
<path d="M2455 2569 c-4 -6 -5 -12 -2 -15 2 -3 7 2 10 11 7 17 1 20 -8 4z"/>
<path d="M5140 2566 c0 -2 7 -7 16 -10 8 -3 12 -2 9 4 -6 10 -25 14 -25 6z"/>
<path d="M4200 2550 c-9 -6 -10 -10 -3 -10 6 0 15 5 18 10 8 12 4 12 -15 0z"/>
<path d="M5255 2540 c-16 -7 -17 -9 -3 -9 9 -1 20 4 23 9 7 11 7 11 -20 0z"/>
<path d="M5395 2540 c-13 -6 -15 -9 -5 -9 8 0 22 4 30 9 18 12 2 12 -25 0z"/>
<path d="M4166 2395 c-3 -8 -1 -15 4 -15 6 0 10 7 10 15 0 8 -2 15 -4 15 -2 0
-6 -7 -10 -15z"/>
<path d="M4170 2314 c0 -8 5 -12 10 -9 6 4 8 11 5 16 -9 14 -15 11 -15 -7z"/>
<path d="M5255 2293 l-17 -28 23 22 c12 12 20 25 17 28 -3 3 -13 -7 -23 -22z"/>
<path d="M5340 2310 c30 -4 64 -10 75 -14 13 -5 11 -2 -5 8 -15 9 -46 15 -75
14 l-50 -1 55 -7z"/>
<path d="M4145 2270 c-3 -5 -1 -10 4 -10 6 0 11 5 11 10 0 6 -2 10 -4 10 -3 0
-8 -4 -11 -10z"/>
<path d="M4063 2218 c-35 -17 -63 -35 -63 -41 0 -5 10 -2 23 7 12 9 41 25 65
36 23 11 42 22 42 25 0 7 1 8 -67 -27z"/>
<path d="M5200 2230 c0 -5 7 -7 15 -4 8 4 15 8 15 10 0 2 -7 4 -15 4 -8 0 -15
-4 -15 -10z"/>
<path d="M5220 2204 c-56 -40 -59 -47 -7 -19 26 15 47 31 47 36 0 11 2 12 -40
-17z"/>
<path d="M5169 2203 c-12 -16 -12 -17 2 -6 9 7 20 9 24 5 5 -4 5 -1 1 6 -9 16
-11 15 -27 -5z"/>
<path d="M3980 2125 c0 -8 2 -15 4 -15 2 0 6 7 10 15 3 8 1 15 -4 15 -6 0 -10
-7 -10 -15z"/>
<path d="M2999 1773 c-13 -16 -12 -17 4 -4 16 13 21 21 13 21 -2 0 -10 -8 -17
-17z"/>
<path d="M5430 1330 c-9 -6 -10 -10 -3 -10 6 0 15 5 18 10 8 12 4 12 -15 0z"/>
<path d="M5350 1310 c-34 -7 -34 -7 -5 -8 17 0 39 3 50 8 24 10 4 10 -45 0z"/>
<path d="M3057 1225 c10 -13 22 -25 27 -25 5 0 -1 11 -14 25 -30 32 -36 32
-13 0z"/>
<path d="M3127 1159 c16 -16 107 -27 148 -18 21 5 10 7 -37 8 -37 0 -79 6 -95
12 -22 8 -26 8 -16 -2z"/>
</g>
</svg>
