<?xml version="1.0" standalone="no"?>
<!DOCTYPE svg PUBLIC "-//W3C//DTD SVG 20010904//EN"
 "http://www.w3.org/TR/2001/REC-SVG-20010904/DTD/svg10.dtd">
<svg version="1.0" xmlns="http://www.w3.org/2000/svg"
 width="808.000000pt" height="533.000000pt" viewBox="0 0 808.000000 533.000000"
 preserveAspectRatio="xMidYMid meet">

<g transform="translate(0.000000,533.000000) scale(0.100000,-0.100000)"
fill="#000000" stroke="none">
<path d="M5620 3940 c-36 -10 -137 -37 -225 -60 -88 -23 -226 -59 -306 -81
-81 -21 -160 -39 -175 -39 -16 0 -168 -37 -338 -82 -211 -55 -311 -78 -314
-70 -3 9 -48 12 -153 12 l-149 0 0 -35 0 -35 -1377 0 -1377 0 49 -50 49 -50
661 0 c363 0 960 -3 1328 -7 l667 -6 0 -109 0 -108 -77 0 c-152 -1 -316 -40
-408 -98 -57 -36 -151 -127 -203 -197 l-44 -60 -146 -5 c-81 -3 -345 -6 -587
-8 l-441 -3 -34 48 c-42 59 -135 167 -254 295 l-91 98 -88 0 -88 0 6 -37 c6
-33 98 -305 140 -415 l14 -37 -53 -15 c-30 -9 -59 -16 -65 -16 -7 0 -11 -25
-11 -65 l0 -65 40 0 c22 0 40 -3 40 -8 0 -4 -18 -58 -39 -120 l-39 -112 88 0
89 0 37 63 c21 34 42 67 46 72 5 6 22 31 38 57 20 33 34 45 47 42 61 -13 593
-97 668 -105 129 -13 790 -127 850 -146 28 -9 84 -31 125 -50 134 -62 257
-113 272 -113 23 0 132 -47 136 -58 4 -12 -84 -258 -104 -290 -1 -2 -59 6
-129 18 -116 19 -130 19 -151 5 -27 -17 -32 -60 -11 -88 15 -21 111 -40 367
-72 277 -35 440 -45 720 -45 338 0 653 25 985 80 98 16 123 23 138 41 21 26
16 65 -11 86 -22 16 -18 16 -147 -6 -60 -11 -113 -16 -116 -13 -13 14 -61 145
-62 171 -2 22 3 26 28 29 63 7 242 55 285 77 53 28 98 90 131 183 20 57 21 68
10 116 -13 60 -87 175 -155 242 -57 56 -167 144 -182 144 -6 0 -17 7 -24 16
-27 31 -267 159 -410 218 -36 15 -79 33 -95 41 -17 8 -51 18 -75 24 -214 48
-253 54 -450 62 -113 4 -206 8 -207 8 -7 2 -2 201 5 201 4 0 57 -9 117 -21
145 -26 345 -62 529 -94 l148 -25 117 22 c64 12 119 25 124 28 4 3 -61 18
-145 33 -84 15 -229 40 -323 57 -93 16 -208 35 -255 40 -104 13 -277 43 -284
51 -3 3 155 37 352 77 196 39 467 95 602 123 135 28 277 55 315 59 71 9 616
117 622 124 2 2 -34 9 -79 16 -46 7 -148 23 -228 36 -169 28 -175 28 -260 4z
m-1610 -1084 l0 -195 -27 -3 c-16 -2 -83 -2 -150 0 l-122 3 -3 92 c-2 50 -2
137 0 194 l3 103 150 0 149 0 0 -194z m424 2 c-2 -105 -6 -193 -7 -194 -2 -3
-174 -6 -254 -5 l-43 1 0 195 0 195 155 0 154 0 -5 -192z m345 162 c94 -31
181 -75 221 -110 19 -17 54 -44 76 -60 42 -30 148 -140 165 -172 9 -17 -10
-18 -341 -18 l-350 0 0 196 0 197 83 -6 c45 -3 111 -15 146 -27z m-617 -909
c235 -40 438 -55 780 -55 l327 -1 35 -91 c20 -51 36 -96 36 -101 0 -25 -554
-57 -850 -49 -220 6 -526 29 -538 40 -3 3 7 33 22 66 14 34 26 68 26 77 0 16
40 133 45 133 2 0 54 -9 117 -19z"/>
</g>
</svg>
